<?xml version="1.0" encoding="UTF-8"?>
<svg version="1.1" xmlns="http://www.w3.org/2000/svg" width="416" height="416">
<path d="M0 0 C0.81400772 -0.00807175 1.62801544 -0.01614349 2.46669006 -0.02445984 C4.18358288 -0.0382109 5.90050199 -0.04897265 7.61743164 -0.05688477 C9.33821888 -0.0683341 11.05897262 -0.08867242 12.77954102 -0.1184082 C28.50572674 -0.38910608 42.93301752 1.51010597 57.34765625 8.23828125 C58.1778125 8.62072998 59.00796875 9.00317871 59.86328125 9.3972168 C85.4866336 21.73066233 104.23583112 44.32439377 114.5625 70.47265625 C123.94305481 98.36653243 122.21649119 128.08620761 109.33276367 154.5246582 C107.69625916 157.78736996 105.99703143 161.01468009 104.28515625 164.23828125 C103.84171875 165.10324219 103.39828125 165.96820313 102.94140625 166.859375 C98.09793966 176.03905323 91.85810736 183.9297025 84.59765625 191.30078125 C84.05109375 191.86120117 83.50453125 192.42162109 82.94140625 192.99902344 C79.92263462 195.98290658 77.44912864 197.99449729 73.28515625 199.23828125 C73.28515625 199.89828125 73.28515625 200.55828125 73.28515625 201.23828125 C48.89312354 221.32968225 15.13781005 225.78287086 -15.28027344 223.00390625 C-19.52707434 222.42471043 -23.60600753 221.44099336 -27.71484375 220.23828125 C-29.28492188 219.80322266 -29.28492188 219.80322266 -30.88671875 219.359375 C-45.80527992 214.83458297 -60.2062943 205.77134109 -70.71484375 194.23828125 C-71.51921875 193.45453125 -72.32359375 192.67078125 -73.15234375 191.86328125 C-73.99796875 190.99703125 -74.84359375 190.13078125 -75.71484375 189.23828125 C-76.29878906 188.66207031 -76.88273437 188.08585938 -77.484375 187.4921875 C-84.08114673 180.60916532 -88.36512286 172.63887058 -92.71484375 164.23828125 C-93.47667969 162.77841797 -93.47667969 162.77841797 -94.25390625 161.2890625 C-104.6134956 140.02965981 -106.72822098 114.04702524 -100.08984375 91.36328125 C-98.4353808 85.42188473 -98.54898682 79.75219222 -98.91357422 73.64306641 C-99.17425437 66.99056797 -97.3467592 63.11527385 -92.78515625 58.12890625 C-88.92668779 54.87477622 -85.37141622 52.21732455 -80.71484375 50.23828125 C-81.70484375 49.18640625 -81.70484375 49.18640625 -82.71484375 48.11328125 C-85.0953316 44.69132997 -85.38139227 43.32089096 -84.71484375 39.23828125 C-75.51343512 22.19863564 -49.93020308 10.85740818 -32.328125 5.30078125 C-21.52583585 2.12432433 -11.26006619 0.1096665 0 0 Z " fill="#CDDFD9" transform="translate(202.71484375,76.76171875)"/>
<path d="M0 0 C2.83810494 2.83267835 5.66785847 5.67314872 8.48828125 8.5234375 C16.90864971 17.07621394 16.90864971 17.07621394 25.8203125 25.10546875 C29.76446602 28.53363086 33.54184456 32.14852226 37.34204102 35.73486328 C39.81970279 38.63351038 39.81970279 38.63351038 43 40 C43.17015625 39.443125 43.3403125 38.88625 43.515625 38.3125 C44.2957379 35.85597426 45.1336144 33.42740635 46 31 C46.22042969 30.36578125 46.44085938 29.7315625 46.66796875 29.078125 C51.18296675 18.3521399 61.6413871 8.81757711 72 4 C72.79148437 3.59136719 73.58296875 3.18273437 74.3984375 2.76171875 C84.57336365 -1.79351742 97.51846107 -1.84803712 108.06958008 1.59570312 C116.67630456 4.8984535 122.80795261 10.33900311 129 17 C129.63808594 17.6703125 130.27617187 18.340625 130.93359375 19.03125 C135.77496347 24.72981985 139.19107114 33.0168646 138.90234375 40.546875 C137.64514131 43.96472405 135.64286109 45.94121402 133.125 48.5625 C132.11562387 49.62735631 131.1065166 50.69246752 130.09765625 51.7578125 C129.58090332 52.29696289 129.06415039 52.83611328 128.53173828 53.39160156 C126.1696254 55.87193304 123.86936446 58.40565749 121.5625 60.9375 C118.19027533 64.62140732 114.80654354 68.29447691 111.41430664 71.95996094 C109.89342427 73.60507082 108.37615086 75.25344802 106.859375 76.90234375 C105.0707438 78.8460136 103.26886801 80.77262261 101.453125 82.69140625 C92.81376019 91.95408094 88.26372642 100.75142671 85 113 C78.08555522 111.88959166 72.05563284 110.10178193 65.75 107.0625 C64.93297607 106.6713501 64.11595215 106.2802002 63.27416992 105.87719727 C43.91101994 96.22686232 29.26753378 79.81201017 19 61 C18.69707031 59.92105469 18.39414063 58.84210938 18.08203125 57.73046875 C17.27835734 54.82598286 17.27835734 54.82598286 14.71875 53.83203125 C13.8215625 53.55746094 12.924375 53.28289062 12 53 C6.07743999 49.62175816 0.52065347 46.14419188 -4 41 C-4.495 43.475 -4.495 43.475 -5 46 C-5.33 46 -5.66 46 -6 46 C-9.16678797 31.73678698 -5.93000115 15.83360403 -2 2 C-1.34 2 -0.68 2 0 2 C0 1.34 0 0.68 0 0 Z " fill="#2C8DA5" transform="translate(106,160)"/>
<path d="M0 0 C1 4 1 4 1.3125 6.0625 C2.3121964 8.87982623 3.3367785 9.63424538 6 11 C9.80164595 11.24526748 12.97770804 11.18386546 16.71484375 10.51171875 C21.45387232 9.77353475 26.19738942 9.64924132 30.98632812 9.48242188 C34.78942642 9.30451878 36.76633833 9.15577445 40 7 C44.82862596 5.04189478 49.91719914 3.68402549 54.9375 2.3125 C55.85402344 2.06113281 56.77054687 1.80976562 57.71484375 1.55078125 C68.67928713 -0.28749047 68.67928713 -0.28749047 73.03038025 2.12641907 C75.00177694 3.78411539 76.76295547 5.5333833 78.53125 7.40625 C79.20450317 8.07765015 79.87775635 8.74905029 80.57141113 9.4407959 C82.00316994 10.87370889 83.42399318 12.31762036 84.83447266 13.77148438 C86.9784625 15.97783604 89.15248015 18.14920575 91.33984375 20.3125 C95.75225565 24.68303906 100.1288633 29.08822857 104.5 33.5 C107.44490584 36.47175908 110.3933173 39.43997921 113.34375 42.40625 C113.99597534 43.06677368 114.64820068 43.72729736 115.32019043 44.40783691 C119.17167812 48.27956831 123.13923879 51.9526753 127.27883911 55.51522827 C129.37455293 57.32311076 131.39387073 59.19238818 133.375 61.125 C134.02210938 61.74632812 134.66921875 62.36765625 135.3359375 63.0078125 C137.27314821 65.32700842 138.29027041 67.0532746 139 70 C138.09375 72.4296875 138.09375 72.4296875 136.5 74.875 C135.94054687 75.73609375 135.38109375 76.5971875 134.8046875 77.484375 C132.38515749 80.8570532 129.79855504 83.93491591 127 87 C124.90989586 83.86484379 124.33955966 81.62566974 123.4375 78 C121.19109467 70.50084764 117.36588597 65.59021231 112 60 C111.39414063 59.33097656 110.78828125 58.66195312 110.1640625 57.97265625 C101.84235121 49.66911463 90.72601255 46.43956107 79.25 46.375 C71.90613812 46.52575163 65.58308421 47.56488498 59 51 C58.12988281 51.44730469 57.25976562 51.89460938 56.36328125 52.35546875 C42.59263553 60.03327272 34.56275501 72.17104621 30 87 C24.04317204 81.99084921 18.31911607 76.74263367 12.59814453 71.46875 C11.01684046 70.01547696 9.42948643 68.56914327 7.83984375 67.125 C-7.59968615 53.08554043 -7.59968615 53.08554043 -12 47 C-12.99 47.495 -12.99 47.495 -14 48 C-15.54622338 41.2368441 -16.79525078 32.51227024 -13.5 26.125 C-9.373856 20.24305004 -3.56601279 15.79055544 3 13 C2.34 12.29875 1.68 11.5975 1 10.875 C-1.32030013 7.53956856 -1.44143161 5.97288453 -1 2 C-0.67 1.34 -0.34 0.68 0 0 Z " fill="#E88C3E" transform="translate(119,114)"/>
<path d="M0 0 C2.28810911 1.75714556 4.47046564 3.59778867 6.65234375 5.484375 C7.255625 5.93296875 7.85890625 6.3815625 8.48046875 6.84375 C12.24438542 9.65755178 13.4316302 12.00842532 14.65234375 16.484375 C15.31234375 16.814375 15.97234375 17.144375 16.65234375 17.484375 C16.32234375 18.144375 15.99234375 18.804375 15.65234375 19.484375 C17.13734375 19.979375 17.13734375 19.979375 18.65234375 20.484375 C19.83984375 23.046875 19.83984375 23.046875 20.65234375 25.484375 C21.27109375 24.824375 21.88984375 24.164375 22.52734375 23.484375 C24.65234375 21.484375 24.65234375 21.484375 26.65234375 21.484375 C26.15734375 17.524375 26.15734375 17.524375 25.65234375 13.484375 C26.31234375 13.484375 26.97234375 13.484375 27.65234375 13.484375 C26.66234375 9.854375 25.67234375 6.224375 24.65234375 2.484375 C26.65234375 3.484375 26.65234375 3.484375 27.7578125 6.25 C28.29341797 7.97476563 28.29341797 7.97476563 28.83984375 9.734375 C29.20464844 10.87390625 29.56945312 12.0134375 29.9453125 13.1875 C30.6786246 16.60692217 30.88044263 18.23905838 29.65234375 21.484375 C27.53515625 24.17578125 27.53515625 24.17578125 24.77734375 27.046875 C23.76796762 28.11173131 22.75886035 29.17684252 21.75 30.2421875 C21.23324707 30.78133789 20.71649414 31.32048828 20.18408203 31.87597656 C17.82196915 34.35630804 15.52170821 36.89003249 13.21484375 39.421875 C9.84261908 43.10578232 6.45888729 46.77885191 3.06665039 50.44433594 C1.54576802 52.08944582 0.02849461 53.73782302 -1.48828125 55.38671875 C-3.27691245 57.3303886 -5.07878824 59.25699761 -6.89453125 61.17578125 C-15.53389606 70.43845594 -20.08392983 79.23580171 -23.34765625 91.484375 C-31.5587337 90.43074117 -38.12041768 87.43327855 -45.34765625 83.484375 C-45.4921875 81.11328125 -45.4921875 81.11328125 -45.34765625 78.484375 C-43.03515625 76.421875 -43.03515625 76.421875 -40.34765625 74.484375 C-36.98212422 70.73237039 -36.72316133 67.90695518 -36.859375 62.99609375 C-37.54995064 59.44377265 -39.26076939 57.82718323 -41.75390625 55.31640625 C-47.82315697 48.33974305 -49.75908685 36.88087863 -49.16015625 27.921875 C-47.72441144 16.56353827 -43.3443271 8.46033591 -34.41015625 1.046875 C-24.12800084 -4.19912266 -10.30173231 -6.65070239 0 0 Z " fill="#412C56" transform="translate(214.34765625,181.515625)"/>
<path d="M0 0 C0.845625 0.804375 1.69125 1.60875 2.5625 2.4375 C5.63420413 5.14561466 8.82752284 6.99238618 12.45288086 8.87915039 C20.83463712 13.34893922 24.40044848 17.88239969 28.32421875 26.42578125 C30.59193777 31.2625246 33.50005592 35.00405586 37 39 C37.80050781 39.94359375 38.60101563 40.8871875 39.42578125 41.859375 C52.35201325 56.78509991 70.74533933 70.30246893 90.96484375 72.4140625 C92.27582031 72.48367188 93.58679688 72.55328125 94.9375 72.625 C95.62134766 72.66367187 96.30519531 72.70234375 97.00976562 72.7421875 C98.67279513 72.83522412 100.33635847 72.91863787 102 73 C102 73.66 102 74.32 102 75 C102.53625 74.67 103.0725 74.34 103.625 74 C109.74154515 71.42461257 115.1518525 73.8511458 121 76 C121.98613281 76.33644531 122.97226563 76.67289062 123.98828125 77.01953125 C125.47908203 77.53580078 125.47908203 77.53580078 127 78.0625 C127.928125 78.38347656 128.85625 78.70445312 129.8125 79.03515625 C132 80 132 80 133 82 C134.65 82.33 136.3 82.66 138 83 C137.67 86.96 137.34 90.92 137 95 C136.34 95 135.68 95 135 95 C135 95.66 135 96.32 135 97 C133.68911318 97.31919939 132.37614752 97.62985947 131.0625 97.9375 C129.96615234 98.19853516 129.96615234 98.19853516 128.84765625 98.46484375 C111.36577507 101.75019042 91.11596336 102.0100747 74 97 C72.42992187 96.56494141 72.42992187 96.56494141 70.828125 96.12109375 C55.90956383 91.59630172 41.50854945 82.53305984 31 71 C30.195625 70.21625 29.39125 69.4325 28.5625 68.625 C27.716875 67.75875 26.87125 66.8925 26 66 C25.41605469 65.42378906 24.83210938 64.84757812 24.23046875 64.25390625 C17.63369702 57.37088407 13.34972089 49.40058933 9 41 C8.49210937 40.02675781 7.98421875 39.05351562 7.4609375 38.05078125 C1.38085633 25.57355946 -0.69895967 13.68796011 0 0 Z " fill="#F4F4F3" transform="translate(101,200)"/>
<path d="M0 0 C4.04509242 2.99016724 7.17951268 6.36235956 10.25 10.3125 C10.72163574 10.91481445 11.19327148 11.51712891 11.67919922 12.13769531 C17.13493882 19.25929561 21.98539495 26.9707899 26 35 C22.02845738 42.99863129 16.13610034 49.61042908 10 56 C9.28199219 56.76957031 8.56398438 57.53914063 7.82421875 58.33203125 C4.34991737 61.9633632 1.8254955 64.33603603 -3 66 C-3 66.66 -3 67.32 -3 68 C-5.42814966 70.00003538 -8.19162375 71.5529951 -10.875 73.1875 C-12.07793701 73.92081543 -12.07793701 73.92081543 -13.30517578 74.66894531 C-18.98235284 78.02771141 -24.7355777 80.84147689 -30.875 83.25 C-32.00591064 83.6989563 -32.00591064 83.6989563 -33.15966797 84.15698242 C-36.88905875 85.54117811 -39.20907179 86.21167399 -43 85 C-42.34 85 -41.68 85 -41 85 C-41.020625 83.948125 -41.04125 82.89625 -41.0625 81.8125 C-41.01103198 78.67295096 -40.73482813 76.03116604 -40 73 C-41.65 73 -43.3 73 -45 73 C-45.33 72.01 -45.66 71.02 -46 70 C-47.76785073 69.29696459 -47.76785073 69.29696459 -49.9375 69 C-53.5137525 68.31115522 -56.99859593 67.50759829 -60.5 66.5 C-61.3353125 66.2628125 -62.170625 66.025625 -63.03125 65.78125 C-65 65 -65 65 -66 63 C-65.21238281 62.90203125 -64.42476562 62.8040625 -63.61328125 62.703125 C-39.43760578 59.38433405 -15.90169411 48.16717597 -0.77783203 28.40283203 C4.36425972 21.54830192 4.36425972 21.54830192 5.8671875 13.375 C5.06751424 10.26275811 4.26534326 8.2860578 2.4375 5.6875 C0 2.17280453 0 2.17280453 0 0 Z " fill="#F4AF65" transform="translate(279,210)"/>
<path d="M0 0 C1 4 1 4 1.3125 6.0625 C2.3121964 8.87982623 3.3367785 9.63424538 6 11 C9.82834091 11.24698974 13.00500976 11.1841013 16.765625 10.48828125 C20.48839367 9.92626907 24.12234936 9.89022824 27.875 9.9375 C28.56335938 9.94201172 29.25171875 9.94652344 29.9609375 9.95117188 C31.64066335 9.96283664 33.32034375 9.98076729 35 10 C33.625 12 33.625 12 32 14 C31.34 14 30.68 14 30 14 C25.12622549 23.49687429 23.39165916 31.63408607 23.625 42.3125 C23.62628906 43.45267578 23.62757813 44.59285156 23.62890625 45.76757812 C23.68755176 51.34867594 24.1309481 55.71092228 26 61 C26.59328469 67.62210407 26.27485472 73.74414951 24 80 C19.663068 78.60571103 17.3026632 76.59877071 14.1875 73.3125 C11.21388975 70.24225839 8.25702264 67.26813892 5 64.5 C-1.14138973 59.23416481 -7.30061748 53.61563559 -12 47 C-12.99 47.495 -12.99 47.495 -14 48 C-15.54622338 41.2368441 -16.79525078 32.51227024 -13.5 26.125 C-9.373856 20.24305004 -3.56601279 15.79055544 3 13 C2.34 12.29875 1.68 11.5975 1 10.875 C-1.32030013 7.53956856 -1.44143161 5.97288453 -1 2 C-0.67 1.34 -0.34 0.68 0 0 Z " fill="#F1C47A" transform="translate(119,114)"/>
<path d="M0 0 C2.83810494 2.83267835 5.66785847 5.67314872 8.48828125 8.5234375 C11.10679382 11.1640889 13.73000413 13.79984717 16.36328125 16.42578125 C17.26494019 17.32550659 17.26494019 17.32550659 18.18481445 18.2434082 C20.07644967 20.07398189 22.02341294 21.82433395 24 23.5625 C24.86818359 24.33400391 24.86818359 24.33400391 25.75390625 25.12109375 C27.06345919 26.21656325 28.3937158 27.28960878 29.76904297 28.30126953 C41.93466697 37.29016604 41.93466697 37.29016604 43.7734375 43.69335938 C44.64906566 49.79384428 44.52551876 55.87099488 44 62 C42.94425781 61.81824219 42.94425781 61.81824219 41.8671875 61.6328125 C33.92932836 60.28565625 25.97442074 59.10886916 18 58 C17.67 57.01 17.34 56.02 17 55 C15.35811215 54.27444745 13.68538556 53.6178169 12 53 C6.07743999 49.62175816 0.52065347 46.14419188 -4 41 C-4.495 43.475 -4.495 43.475 -5 46 C-5.33 46 -5.66 46 -6 46 C-9.16678797 31.73678698 -5.93000115 15.83360403 -2 2 C-1.34 2 -0.68 2 0 2 C0 1.34 0 0.68 0 0 Z " fill="#0A3F4B" transform="translate(106,160)"/>
<path d="M0 0 C0.268125 0.53367187 0.53625 1.06734375 0.8125 1.6171875 C6.05545017 11.58569144 13.47073496 19.66209943 21.09375 27.84765625 C23 30 23 30 23 31 C21.04707031 31.27263672 21.04707031 31.27263672 19.0546875 31.55078125 C17.32804563 31.80414718 15.6014874 32.0580836 13.875 32.3125 C12.59109375 32.48942383 12.59109375 32.48942383 11.28125 32.66992188 C6.30478319 33.4163919 2.43458861 34.48795962 -2 37 C-3.99220557 37.68960962 -5.99105606 38.36079057 -8 39 C-8.99 39.495 -8.99 39.495 -10 40 C-12.75363842 40.2091371 -15.49247124 40.37486844 -18.25 40.5 C-23.24966621 40.73154543 -28.06536611 41.1014973 -33 42 C-37.36266577 42.56137243 -40.81668247 42.59157866 -44.5625 40.0625 C-47.48612953 36.38922187 -47.52299211 34.86965857 -47.11328125 30.37890625 C-45.34192599 26.59379974 -42.26243505 24.51744809 -39 22 C-38.32864014 21.47752686 -37.65728027 20.95505371 -36.96557617 20.41674805 C-10.24470943 0 -10.24470943 0 0 0 Z " fill="#C9C4C0" transform="translate(166,84)"/>
<path d="M0 0 C1.29511 2.59022001 0.78059746 3.78205949 0.3125 6.625 C-0.68225747 16.43046647 2.10771293 27.42973951 7.75390625 35.51953125 C8.98557017 37.06232937 8.98557017 37.06232937 10.62109375 38.3984375 C12.98603231 41.14525 12.52227495 44.00942953 12.42578125 47.48828125 C11.73521841 51.56196846 9.99933273 53.20992304 7 56 C6.01 56.66 5.02 57.32 4 58 C3.27034634 60.56282742 3.27034634 60.56282742 3 63 C-16.02269099 55.22774928 -31.999711 37.13694602 -41 19 C-41 18.01 -41 17.02 -41 16 C-32.33459773 16.4053172 -24.34226001 17.61005524 -16 20 C-16.33 17.69 -16.66 15.38 -17 13 C-13.125 16.75 -13.125 16.75 -12 19 C-9.08347826 19.16681109 -9.08347826 19.16681109 -6 19 C-3.12917399 16.12917399 -3.07170824 12.79979466 -2.4375 8.9375 C-1.11993243 1.11993243 -1.11993243 1.11993243 0 0 Z " fill="#139297" transform="translate(166,202)"/>
<path d="M0 0 C2.97496903 -0.46804962 5.13395726 -0.56835212 7.71313477 1.12426758 C9.64504678 2.81895078 11.46774996 4.58527721 13.28125 6.40625 C13.97255005 7.07765015 14.6638501 7.74905029 15.37609863 8.4407959 C17.6005891 10.61109446 19.80172779 12.80317181 22 15 C23.45164296 16.43768173 24.90346496 17.8751827 26.35546875 19.3125 C30.75831798 23.68724279 35.13155171 28.09094197 39.5 32.5 C42.44490584 35.47175908 45.3933173 38.43997921 48.34375 41.40625 C48.99597534 42.06677368 49.64820068 42.72729736 50.32019043 43.40783691 C54.17167812 47.27956831 58.13923879 50.9526753 62.27883911 54.51522827 C64.37455293 56.32311076 66.39387073 58.19238818 68.375 60.125 C69.02210938 60.74632812 69.66921875 61.36765625 70.3359375 62.0078125 C72.27314821 64.32700842 73.29027041 66.0532746 74 69 C73.09375 71.4296875 73.09375 71.4296875 71.5 73.875 C70.94054687 74.73609375 70.38109375 75.5971875 69.8046875 76.484375 C67.38515749 79.8570532 64.79855504 82.93491591 62 86 C59.90989586 82.86484379 59.33955966 80.62566974 58.4375 77 C56.21923252 69.49974469 52.18737767 64.69880927 47 59 C45.65546629 57.34235569 44.31866272 55.678298 43 54 C47.75 53.875 47.75 53.875 50 55 C51.10844919 51.67465243 50.84454356 49.37817425 50 46 C49.236875 45.9175 48.47375 45.835 47.6875 45.75 C44.43790082 44.84313511 43.80635062 43.75253428 42 41 C41.01 40.505 41.01 40.505 40 40 C39.79375 39.29875 39.5875 38.5975 39.375 37.875 C37.56238232 34.08498121 34.92004127 32.15113632 31.6796875 29.55078125 C31.12539062 29.03902344 30.57109375 28.52726562 30 28 C30 27.34 30 26.68 30 26 C29.01 25.67 28.02 25.34 27 25 C27 24.01 27 23.02 27 22 C26.01 22 25.02 22 24 22 C22.28859531 20.03814584 20.62126675 18.03697617 19 16 C18.34 15.67 17.68 15.34 17 15 C17 14.34 17 13.68 17 13 C16.34 13 15.68 13 15 13 C14.67 13.66 14.34 14.32 14 15 C13.67 14.01 13.34 13.02 13 12 C12.34 12 11.68 12 11 12 C10.67 10.35 10.34 8.7 10 7 C9.34 7 8.68 7 8 7 C6.31183067 5.35511706 4.64646685 3.68662458 3 2 C2.01 1.34 1.02 0.68 0 0 Z " fill="#C0633E" transform="translate(184,115)"/>
<path d="M0 0 C3.8112111 2.17667895 6.31690797 4.94699364 8 9 C8.79315687 13.05730243 8.72724381 16.57226717 6.83203125 20.29296875 C4.73040238 23.25902081 2.70479198 25.5237892 -0.3125 27.5625 C-5.57436983 28.41908346 -10.2057901 28.01411864 -14.875 25.375 C-18.19696125 21.66221978 -19.66850048 17.94755969 -20.5 13.0625 C-19.58120377 7.43487306 -16.78127451 3.33595588 -12.25 -0.0625 C-7.8816485 -1.32260139 -4.36513766 -1.28845745 0 0 Z " fill="#22ABB0" transform="translate(204,199)"/>
<path d="M0 0 C0.64066406 0.20496094 1.28132813 0.40992188 1.94140625 0.62109375 C6.00770905 1.88764708 9.67820335 2.9693527 13.9375 3.375 C14.948125 3.58125 15.95875 3.7875 17 4 C18.01187895 5.65948148 19.0126546 7.32580562 20 9 C23.12635209 9.41746608 23.12635209 9.41746608 26 9 C26 9.66 26 10.32 26 11 C26.99 11.33 27.98 11.66 29 12 C29.6875 14.0625 29.6875 14.0625 30 16 C29.47535156 15.73445312 28.95070313 15.46890625 28.41015625 15.1953125 C27.61480469 14.80085937 26.81945312 14.40640625 26 14 C25.00871094 13.50242188 24.01742187 13.00484375 22.99609375 12.4921875 C11.19562505 7.12951566 -1.51366255 5.43613771 -14.0625 9.625 C-15.73302515 10.36313902 -17.38084475 11.15510962 -19 12 C-19.87011719 12.44730469 -20.74023438 12.89460937 -21.63671875 13.35546875 C-35.40736447 21.03327272 -43.43724499 33.17104621 -48 48 C-49.65 46.68 -51.3 45.36 -53 44 C-52.52229477 42.06213915 -52.04278429 40.12472326 -51.5625 38.1875 C-51.29566406 37.10855469 -51.02882812 36.02960938 -50.75390625 34.91796875 C-50.23922588 32.9259157 -49.65062825 30.95188476 -49 29 C-48.401875 28.896875 -47.80375 28.79375 -47.1875 28.6875 C-43.795829 27.62154626 -42.85274517 24.9026341 -41 22 C-40.34 22 -39.68 22 -39 22 C-38.34 20.68 -37.68 19.36 -37 18 C-36.01 18 -35.02 18 -34 18 C-33.67 16.68 -33.34 15.36 -33 14 C-31.35 13.67 -29.7 13.34 -28 13 C-27.67 12.01 -27.34 11.02 -27 10 C-25.3523962 9.28752268 -23.68236471 8.62599617 -22 8 C-20.948125 7.195625 -20.948125 7.195625 -19.875 6.375 C-18 5 -18 5 -15 5 C-15 4.34 -15 3.68 -15 3 C-13.62714844 2.92652344 -13.62714844 2.92652344 -12.2265625 2.8515625 C-11.03804687 2.77679688 -9.84953125 2.70203125 -8.625 2.625 C-7.44164062 2.55539063 -6.25828125 2.48578125 -5.0390625 2.4140625 C-1.89437681 2.29782654 -1.89437681 2.29782654 0 0 Z " fill="#CE7235" transform="translate(197,153)"/>
<path d="M0 0 C2.97496903 -0.46804962 5.13395726 -0.56835212 7.71313477 1.12426758 C9.64504678 2.81895078 11.46774996 4.58527721 13.28125 6.40625 C13.97255005 7.07765015 14.6638501 7.74905029 15.37609863 8.4407959 C17.6005891 10.61109446 19.80172779 12.80317181 22 15 C23.45164296 16.43768173 24.90346496 17.8751827 26.35546875 19.3125 C30.75831798 23.68724279 35.13155171 28.09094197 39.5 32.5 C42.44490584 35.47175908 45.3933173 38.43997921 48.34375 41.40625 C48.99597534 42.06677368 49.64820068 42.72729736 50.32019043 43.40783691 C54.17307772 47.28097526 58.1405252 50.92757222 62.32385254 54.44274902 C64 56 64 56 66 59 C63.3333581 60.33332095 61.83319697 59.67102033 59 59 C58.9175 58.21625 58.835 57.4325 58.75 56.625 C58.28474077 53.85955198 58.28474077 53.85955198 56 52.8125 C55.34 52.544375 54.68 52.27625 54 52 C53.67 51.34 53.34 50.68 53 50 C52.01 49.67 51.02 49.34 50 49 C50 48.01 50 47.02 50 46 C49.236875 45.9175 48.47375 45.835 47.6875 45.75 C44.43790082 44.84313511 43.80635062 43.75253428 42 41 C41.01 40.505 41.01 40.505 40 40 C39.79375 39.29875 39.5875 38.5975 39.375 37.875 C37.56238232 34.08498121 34.92004127 32.15113632 31.6796875 29.55078125 C31.12539062 29.03902344 30.57109375 28.52726562 30 28 C30 27.34 30 26.68 30 26 C29.01 25.67 28.02 25.34 27 25 C27 24.01 27 23.02 27 22 C26.01 22 25.02 22 24 22 C22.28859531 20.03814584 20.62126675 18.03697617 19 16 C18.34 15.67 17.68 15.34 17 15 C17 14.34 17 13.68 17 13 C16.34 13 15.68 13 15 13 C14.67 13.66 14.34 14.32 14 15 C13.67 14.01 13.34 13.02 13 12 C12.34 12 11.68 12 11 12 C10.67 10.35 10.34 8.7 10 7 C9.34 7 8.68 7 8 7 C6.31183067 5.35511706 4.64646685 3.68662458 3 2 C2.01 1.34 1.02 0.68 0 0 Z " fill="#B15F39" transform="translate(184,115)"/>
<path d="M0 0 C15.13490517 9.53982055 24.10708884 28.99907399 28 46 C30.4444049 57.72463199 31.44575703 69.03059831 31 81 C30.01 81.495 30.01 81.495 29 82 C28.96261719 80.92105469 28.92523438 79.84210938 28.88671875 78.73046875 C28.41235188 67.31223962 26.98299333 56.24943384 25 45 C23.35 45 21.7 45 20 45 C19.97301811 43.37509046 19.95361243 41.75005367 19.9375 40.125 C19.92589844 39.22007812 19.91429687 38.31515625 19.90234375 37.3828125 C20 35 20 35 21 33 C19.35 32.67 17.7 32.34 16 32 C16.33 30.35 16.66 28.7 17 27 C16.34 26.67 15.68 26.34 15 26 C15 25.01 15 24.02 15 23 C13.97601246 20.35469885 12.90057581 18.90057581 10.875 16.875 C10.25625 16.25625 9.6375 15.6375 9 15 C9 14.34 9 13.68 9 13 C8.34 12.34 7.68 11.68 7 11 C6.375 8.875 6.375 8.875 6 7 C4.35 6.67 2.7 6.34 1 6 C0.67 4.02 0.34 2.04 0 0 Z " fill="#69CACB" transform="translate(292,111)"/>
<path d="M0 0 C6.28281509 5.26003124 12.26683548 10.83244733 18.27294922 16.40234375 C21.60501683 19.48476536 24.95594257 22.54663159 28.30541992 25.61010742 C32.98968095 29.89741074 32.98968095 29.89741074 33.20532227 32.04125977 C33.26030884 33.35308228 33.26030884 33.35308228 33.31640625 34.69140625 C33.35830078 35.63564453 33.40019531 36.57988281 33.44335938 37.55273438 C33.48267578 38.54595703 33.52199219 39.53917969 33.5625 40.5625 C33.60568359 41.55958984 33.64886719 42.55667969 33.69335938 43.58398438 C33.79980298 46.0558415 33.90181928 48.5278031 34 51 C32.10399631 50.68853528 30.20820413 50.37578283 28.3125 50.0625 C27.25675781 49.88847656 26.20101562 49.71445313 25.11328125 49.53515625 C22.39750396 49.06832879 19.69875765 48.55577384 17 48 C17 47.34 17 46.68 17 46 C22.445 45.505 22.445 45.505 28 45 C28.02707139 42.75006641 28.04642829 40.50003905 28.0625 38.25 C28.07410156 36.99703125 28.08570313 35.7440625 28.09765625 34.453125 C28.04308324 30.61292221 28.04308324 30.61292221 27 27 C26.01 26.67 25.02 26.34 24 26 C24 25.34 24 24.68 24 24 C23.443125 23.938125 22.88625 23.87625 22.3125 23.8125 C18.98840316 22.64457408 17.31020022 20.61417393 15 18 C14.67 17.278125 14.34 16.55625 14 15.8125 C12.5808862 13.24035625 10.67018304 13.02699348 8 12 C7.67 11.01 7.34 10.02 7 9 C6.01 8.195625 5.02 7.39125 4 6.5625 C1.00030848 4.00026349 0.60945957 3.58819321 0 0 Z " fill="#0A202C" transform="translate(116,171)"/>
<path d="M0 0 C4.04509242 2.99016724 7.17951268 6.36235956 10.25 10.3125 C10.95745361 11.21597168 10.95745361 11.21597168 11.67919922 12.13769531 C17.13493882 19.25929561 21.98539495 26.9707899 26 35 C21.72621277 43.60734771 15.04501682 52.63665546 7 58 C7 56.68 7 55.36 7 54 C8.485 53.505 8.485 53.505 10 53 C10.33 52.01 10.66 51.02 11 50 C12 49 13 48 14 47 C14 46.34 14 45.68 14 45 C14.99 45 15.98 45 17 45 C17.12375 44.484375 17.2475 43.96875 17.375 43.4375 C17.8825219 41.45816457 18.48943316 39.50450979 19.125 37.5625 C19.98693467 34.05319455 20.12343343 32.37030029 19 29 C18.34 28.01 17.68 27.02 17 26 C17 25.34 17 24.68 17 24 C15.68 23.67 14.36 23.34 13 23 C13 20.69 13 18.38 13 16 C11.35 16 9.7 16 8 16 C6.66141476 13.71125827 5.32898986 11.41930344 4 9.125 C3.6184375 8.47402344 3.236875 7.82304687 2.84375 7.15234375 C0 2.2265625 0 2.2265625 0 0 Z " fill="#DF835E" transform="translate(279,210)"/>
<path d="M0 0 C2 1 2 1 3.10546875 3.765625 C3.64107422 5.49039063 3.64107422 5.49039063 4.1875 7.25 C4.55230469 8.38953125 4.91710937 9.5290625 5.29296875 10.703125 C6.03044891 14.14198275 6.25053389 15.74134737 5 19 C3.30309575 21.1410604 1.64282479 23.0528121 -0.25 25 C-0.72824219 25.50789063 -1.20648438 26.01578125 -1.69921875 26.5390625 C-4.73964847 29.7525248 -7.86060844 32.88352371 -11 36 C-11.02698189 34.37509046 -11.04638757 32.75005367 -11.0625 31.125 C-11.07410156 30.22007812 -11.08570313 29.31515625 -11.09765625 28.3828125 C-11 26 -11 26 -10 24 C-10.54908328 17.41100069 -11.82021221 12.1550716 -16 7 C-15.67 6.34 -15.34 5.68 -15 5 C-12.42054787 7.9954928 -10.82639007 10.14351301 -10 14 C-9.34 14.33 -8.68 14.66 -8 15 C-8.33 15.66 -8.66 16.32 -9 17 C-8.01 17.33 -7.02 17.66 -6 18 C-4.8125 20.5625 -4.8125 20.5625 -4 23 C-3.071875 22.01 -3.071875 22.01 -2.125 21 C0 19 0 19 2 19 C1.67 16.36 1.34 13.72 1 11 C1.66 11 2.32 11 3 11 C2.01 7.37 1.02 3.74 0 0 Z " fill="#3C4169" transform="translate(239,184)"/>
<path d="M0 0 C1 2 1 2 0.45239258 3.70043945 C0.16517334 4.39355225 -0.1220459 5.08666504 -0.41796875 5.80078125 C-2.55786059 11.89368127 -2.40308287 17.79234923 -2.3125 24.1875 C-2.31572266 25.33669922 -2.31894531 26.48589844 -2.32226562 27.66992188 C-2.28644343 33.29400692 -1.89052347 37.67026881 0 43 C0.59328469 49.62210407 0.27485472 55.74414951 -2 62 C-6.41889613 60.64978174 -8.34345343 58.73884332 -11 55 C-8.36 55.33 -5.72 55.66 -3 56 C-3.185625 54.741875 -3.37125 53.48375 -3.5625 52.1875 C-4.00732761 49.17255732 -3.99843846 47.99531539 -3 45 C-3.66 45 -4.32 45 -5 45 C-4.98839844 43.98679688 -4.97679687 42.97359375 -4.96484375 41.9296875 C-4.95545791 40.57812686 -4.94635857 39.2265642 -4.9375 37.875 C-4.92912109 37.20984375 -4.92074219 36.5446875 -4.91210938 35.859375 C-4.89213369 31.78433532 -5.25976757 28.00064549 -6 24 C-6.68475567 16.81006548 -5.4714143 9.77350587 -3 3 C-1.39453125 1.1484375 -1.39453125 1.1484375 0 0 Z " fill="#E9B167" transform="translate(145,132)"/>
<path d="M0 0 C0.64066406 0.20496094 1.28132813 0.40992188 1.94140625 0.62109375 C6.00770905 1.88764708 9.67820335 2.9693527 13.9375 3.375 C14.948125 3.58125 15.95875 3.7875 17 4 C18.01187895 5.65948148 19.0126546 7.32580562 20 9 C23.12635209 9.41746608 23.12635209 9.41746608 26 9 C26 9.66 26 10.32 26 11 C26.99 11.33 27.98 11.66 29 12 C29.6875 14.0625 29.6875 14.0625 30 16 C29.46890625 15.72414062 28.9378125 15.44828125 28.390625 15.1640625 C25.55416613 13.78291096 22.66580343 12.57935359 19.75 11.375 C18.67234375 10.92898437 17.5946875 10.48296875 16.484375 10.0234375 C15.66453125 9.68570313 14.8446875 9.34796875 14 9 C14 8.01 14 7.02 14 6 C10.27089934 5.9417538 6.54191636 5.90632083 2.8125 5.875 C1.75740234 5.85824219 0.70230469 5.84148437 -0.38476562 5.82421875 C-1.91713867 5.81455078 -1.91713867 5.81455078 -3.48046875 5.8046875 C-4.41785889 5.79421387 -5.35524902 5.78374023 -6.32104492 5.77294922 C-9.22803831 6.01932704 -11.34482033 6.82720149 -14 8 C-16.66572015 8.49313497 -19.29815717 8.72523632 -22 9 C-20.1875 7 -20.1875 7 -18 5 C-17.01 5 -16.02 5 -15 5 C-15 4.34 -15 3.68 -15 3 C-13.62714844 2.92652344 -13.62714844 2.92652344 -12.2265625 2.8515625 C-11.03804687 2.77679688 -9.84953125 2.70203125 -8.625 2.625 C-7.44164062 2.55539063 -6.25828125 2.48578125 -5.0390625 2.4140625 C-1.89437681 2.29782654 -1.89437681 2.29782654 0 0 Z " fill="#DC7E39" transform="translate(197,153)"/>
<path d="M0 0 C-5.625 4.875 -5.625 4.875 -9 6 C-11.40995366 8.63541018 -11.40995366 8.63541018 -12 12 C-12.721875 11.79375 -13.44375 11.5875 -14.1875 11.375 C-17.49838331 10.93354889 -19.09981674 11.38878708 -22 13 C-22.97608217 15.92824652 -23.08226668 17.95613276 -23 21 C-26 22 -26 22 -29 22 C-26.96774863 12.96777168 -19.48085796 6.84327711 -12 2 C-8.28063543 -0.04102798 -4.04373724 -2.02186862 0 0 Z " fill="#2FB6B3" transform="translate(186,164)"/>
<path d="M0 0 C1.2941674 2.58833479 0.8092106 3.83958933 0.375 6.6875 C-0.43467738 14.20450481 1.3211264 20.6801111 3 28 C-3.27 25.69 -9.54 23.38 -16 21 C-16.33 18.36 -16.66 15.72 -17 13 C-13.125 16.75 -13.125 16.75 -12 19 C-9.08347826 19.16681109 -9.08347826 19.16681109 -6 19 C-3.12917399 16.12917399 -3.07170824 12.79979466 -2.4375 8.9375 C-1.11993243 1.11993243 -1.11993243 1.11993243 0 0 Z " fill="#227587" transform="translate(166,202)"/>
<path d="M0 0 C1.86434219 4.66085548 -0.10022722 8.89196093 -1.95703125 13.2421875 C-2.64769876 14.7787287 -3.34424357 16.3126427 -4.046875 17.84375 C-5.22371804 20.50611623 -6.14440685 23.21932226 -7 26 C-8.65 24.68 -10.3 23.36 -12 22 C-11.52229477 20.06213915 -11.04278429 18.12472326 -10.5625 16.1875 C-10.29566406 15.10855469 -10.02882812 14.02960938 -9.75390625 12.91796875 C-9.23922588 10.9259157 -8.65062825 8.95188476 -8 7 C-7.401875 6.896875 -6.80375 6.79375 -6.1875 6.6875 C-2.75901006 5.60997459 -1.77374113 2.97735118 0 0 Z " fill="#D37834" transform="translate(156,175)"/>
<path d="M0 0 C0.66 0.66 1.32 1.32 2 2 C1.38125 2.7425 0.7625 3.485 0.125 4.25 C-2.84879498 8.09844057 -4.40071702 10.51864175 -3.8125 15.4375 C-3.24468478 19.28602535 -2.64015893 22.0191754 0 25 C2.58103035 26.55065855 5.23084054 27.82261391 8 29 C6.02 32.465 6.02 32.465 4 36 C3.67 36 3.34 36 3 36 C3 34.02 3 32.04 3 30 C2.2575 29.87625 1.515 29.7525 0.75 29.625 C-1.9086905 29.02075216 -3.72123996 28.47723299 -6 27 C-8.66599155 20.83564849 -8.85414389 12.40425561 -7 6 C-3.81290323 3 -3.81290323 3 -1 3 C-0.67 2.01 -0.34 1.02 0 0 Z " fill="#15233A" transform="translate(189,198)"/>
<path d="M0 0 C14.1820372 1.73264708 28.70701329 12.59867543 38 23 C38 23.99 38 24.98 38 26 C36.35 26.33 34.7 26.66 33 27 C33 25.35 33 23.7 33 22 C32.05125 21.5875 31.1025 21.175 30.125 20.75 C26.75901955 18.86505095 26.60680057 18.21360115 25 15 C22.44480079 14.18828772 22.44480079 14.18828772 20 14 C20 13.34 20 12.68 20 12 C19.34 12 18.68 12 18 12 C17.67 12.66 17.34 13.32 17 14 C16.01 13.01 15.02 12.02 14 11 C14.33 10.01 14.66 9.02 15 8 C14.43410156 7.87882812 13.86820312 7.75765625 13.28515625 7.6328125 C12.55167969 7.46523437 11.81820313 7.29765625 11.0625 7.125 C10.33160156 6.96257812 9.60070312 6.80015625 8.84765625 6.6328125 C7 6 7 6 6 4 C4.02477154 2.95191959 2.02518491 1.9479589 0 1 C0 0.67 0 0.34 0 0 Z " fill="#6ECBCA" transform="translate(253,84)"/>
<path d="M0 0 C3.01206209 -0.48731359 5.15365243 -0.56211054 7.75341797 1.16455078 C9.72295645 2.89861834 11.58568494 4.70315167 13.4375 6.5625 C14.46617187 7.56132202 14.46617187 7.56132202 15.515625 8.58032227 C17.69351799 10.70421585 19.8482272 12.84967037 22 15 C23.45942771 16.44552224 24.91906039 17.89083756 26.37890625 19.3359375 C29.9386787 22.87168262 33.47509253 26.42951183 37 30 C36.01 30.33 35.02 30.66 34 31 C31.8125 29.6875 31.8125 29.6875 30 28 C30 27.34 30 26.68 30 26 C29.01 25.67 28.02 25.34 27 25 C27 24.01 27 23.02 27 22 C26.01 22 25.02 22 24 22 C22.28859531 20.03814584 20.62126675 18.03697617 19 16 C18.34 15.67 17.68 15.34 17 15 C17 14.34 17 13.68 17 13 C16.34 13 15.68 13 15 13 C14.67 13.66 14.34 14.32 14 15 C13.67 14.01 13.34 13.02 13 12 C12.34 12 11.68 12 11 12 C10.67 10.35 10.34 8.7 10 7 C9.34 7 8.68 7 8 7 C6.31183067 5.35511706 4.64646685 3.68662458 3 2 C2.01 1.34 1.02 0.68 0 0 Z " fill="#B37140" transform="translate(184,115)"/>
<path d="M0 0 C5.65024678 1.21228632 9.03516037 3.24655495 13.1875 7.3125 C13.94836914 8.0230957 13.94836914 8.0230957 14.72460938 8.74804688 C19.71615819 13.48063077 23.34713034 16.9816512 24 24 C22.35 24 20.7 24 19 24 C18.22157062 20.59437148 17.90021879 17.49234244 18 14 C17.360625 13.690625 16.72125 13.38125 16.0625 13.0625 C14 12 14 12 13 11 C10.67182036 10.63239269 8.3381615 10.29758419 6 10 C5.7525 9.195625 5.505 8.39125 5.25 7.5625 C4.27761141 4.828919 4.27761141 4.828919 1.875 4.1875 C1.25625 4.125625 0.6375 4.06375 0 4 C0 2.68 0 1.36 0 0 Z " fill="#4777A4" transform="translate(216,164)"/>
<path d="M0 0 C3.7986049 2.13972048 6.38480513 4.94340458 8 9 C8.1953125 11.359375 8.1953125 11.359375 8.125 13.75 C8.10695312 14.54921875 8.08890625 15.3484375 8.0703125 16.171875 C8.04710937 16.77515625 8.02390625 17.3784375 8 18 C7.67 18 7.34 18 7 18 C7 15.69 7 13.38 7 11 C4.34771188 9.92474806 1.71631546 8.90543849 -1 8 C-1 6.68 -1 5.36 -1 4 C-6.46137814 3.90247539 -11.59255982 4.22750855 -17 5 C-11.48114509 -0.81717139 -7.7065251 -1.93320681 0 0 Z " fill="#316E92" transform="translate(204,199)"/>
<path d="M0 0 C7.05406827 4.44631431 11.4569871 10.07971206 16 17 C16.5671875 17.82757813 17.134375 18.65515625 17.71875 19.5078125 C19.18587871 22.36155676 19.31475374 24.13115659 19.1875 27.3125 C19.16042969 28.19550781 19.13335937 29.07851562 19.10546875 29.98828125 C19.07066406 30.65214844 19.03585937 31.31601563 19 32 C18.01 31.67 17.02 31.34 16 31 C16.33 29.68 16.66 28.36 17 27 C16.34 26.67 15.68 26.34 15 26 C15 25.01 15 24.02 15 23 C13.97601246 20.35469885 12.90057581 18.90057581 10.875 16.875 C10.25625 16.25625 9.6375 15.6375 9 15 C9 14.34 9 13.68 9 13 C8.34 12.34 7.68 11.68 7 11 C6.375 8.875 6.375 8.875 6 7 C4.35 6.67 2.7 6.34 1 6 C0.67 4.02 0.34 2.04 0 0 Z " fill="#68C8CC" transform="translate(292,111)"/>
<path d="M0 0 C2.97 0.495 2.97 0.495 6 1 C6 1.66 6 2.32 6 3 C6.99 3.33 7.98 3.66 9 4 C9.28699138 8.97451719 9.0766696 11.15416301 6 15 C5.74875174 17.66761764 5.74875174 17.66761764 6 20 C4.35 20.66 2.7 21.32 1 22 C1 23.32 1 24.64 1 26 C0.360625 26.12375 -0.27875 26.2475 -0.9375 26.375 C-1.618125 26.58125 -2.29875 26.7875 -3 27 C-3.33 27.66 -3.66 28.32 -4 29 C-4.99 28.67 -5.98 28.34 -7 28 C-6.31292969 27.20335937 -5.62585938 26.40671875 -4.91796875 25.5859375 C-4.00749445 24.51589554 -3.09735602 23.44556773 -2.1875 22.375 C-1.73568359 21.85292969 -1.28386719 21.33085937 -0.81835938 20.79296875 C2.0438464 17.40846265 4.29046501 14.13918233 6 10 C5.09887218 5.89486217 2.70110893 3.15129375 0 0 Z " fill="#E7D9D0" transform="translate(251,174)"/>
<path d="M0 0 C4.50172288 6.75258432 1.42513265 16.47988039 0 24 C0.66 24.33 1.32 24.66 2 25 C1.67 26.65 1.34 28.3 1 30 C0.67 30 0.34 30 0 30 C-0.495 32.475 -0.495 32.475 -1 35 C-1.33 35 -1.66 35 -2 35 C-4.39320713 24.2209951 -3.50570468 10.51711403 0 0 Z " fill="#234C55" transform="translate(102,171)"/>
<path d="M0 0 C5.14546803 4.3078337 10.08047812 8.81527913 14.99951172 13.37695312 C19.95439146 17.96921077 24.96321138 22.4975885 30 27 C29.01 27.66 28.02 28.32 27 29 C27 28.34 27 27.68 27 27 C26.01 26.67 25.02 26.34 24 26 C24 25.34 24 24.68 24 24 C23.443125 23.938125 22.88625 23.87625 22.3125 23.8125 C18.98840316 22.64457408 17.31020022 20.61417393 15 18 C14.67 17.278125 14.34 16.55625 14 15.8125 C12.5808862 13.24035625 10.67018304 13.02699348 8 12 C7.67 11.01 7.34 10.02 7 9 C6.01 8.195625 5.02 7.39125 4 6.5625 C1.00030848 4.00026349 0.60945957 3.58819321 0 0 Z " fill="#132627" transform="translate(116,171)"/>
<path d="M0 0 C0.33 0.66 0.66 1.32 1 2 C0.67 2.66 0.34 3.32 0 4 C0.66 4.33 1.32 4.66 2 5 C1.525625 5.61875 1.05125 6.2375 0.5625 6.875 C-1.58052838 11.16105676 -1.73342564 15.26600709 -2 20 C-3.65 19.67 -5.3 19.34 -7 19 C-7 22.96 -7 26.92 -7 31 C-7.33 31 -7.66 31 -8 31 C-8.49177268 19.21566942 -6.51359295 11.29204018 -1 1 C-0.67 0.67 -0.34 0.34 0 0 Z " fill="#349EA3" transform="translate(157,182)"/>
<path d="M0 0 C4.01844888 6.02767331 3.89305712 13.34057154 2.55078125 20.34375 C2.09668744 21.91536544 1.55905826 23.46258979 1 25 C-3.41889613 23.64978174 -5.34345343 21.73884332 -8 18 C-5.36 18.33 -2.72 18.66 0 19 C-0.185625 17.906875 -0.37125 16.81375 -0.5625 15.6875 C-1.24688222 10.39304307 -0.63030726 5.27518692 0 0 Z " fill="#E5A459" transform="translate(142,169)"/>
<path d="M0 0 C0 0.66 0 1.32 0 2 C-0.9132605 1.9685791 -0.9132605 1.9685791 -1.8449707 1.93652344 C-17.91216992 1.2031296 -17.91216992 1.2031296 -33 6 C-33.80050781 6.3815625 -34.60101563 6.763125 -35.42578125 7.15625 C-37.30362895 8.06436288 -39.15566056 9.025632 -41 10 C-40.6796875 8.1015625 -40.6796875 8.1015625 -40 6 C-37.125 4.375 -37.125 4.375 -34 3 C-33.01 2.34 -32.02 1.68 -31 1 C-29.0625 0.4375 -29.0625 0.4375 -27 0 C-26.43539062 -0.17144531 -25.87078125 -0.34289062 -25.2890625 -0.51953125 C-17.19143721 -2.21920345 -8.13630332 -1.12224873 0 0 Z " fill="#AE6B3A" transform="translate(211,159)"/>
<path d="M0 0 C2.64 0.33 5.28 0.66 8 1 C8.268125 1.763125 8.53625 2.52625 8.8125 3.3125 C9.94424112 5.87380884 10.91223401 7.19692938 13 9 C13.66 8.67 14.32 8.34 15 8 C15.061875 9.1446875 15.061875 9.1446875 15.125 10.3125 C15.77823609 13.32405113 15.77823609 13.32405113 19.0625 14.8125 C20.031875 15.204375 21.00125 15.59625 22 16 C21.67 16.99 21.34 17.98 21 19 C17.24067571 18.43136271 15.52761592 16.89139255 12.890625 14.21875 C12.13652344 13.45949219 11.38242188 12.70023438 10.60546875 11.91796875 C9.82816406 11.12003906 9.05085937 10.32210937 8.25 9.5 C7.45722656 8.70207031 6.66445312 7.90414062 5.84765625 7.08203125 C0 1.1538565 0 1.1538565 0 0 Z " fill="#F4EDE8" transform="translate(219,143)"/>
<path d="M0 0 C1.32 0.33 2.64 0.66 4 1 C3.67 2.32 3.34 3.64 3 5 C2.01 5 1.02 5 0 5 C-2.67345333 7.77627845 -3.47557578 10.2241456 -4 14 C-5.32 14.33 -6.64 14.66 -8 15 C-8.33 16.32 -8.66 17.64 -9 19 C-9.99 19 -10.98 19 -12 19 C-12.33 19.66 -12.66 20.32 -13 21 C-14 18 -14 18 -12.84765625 15.6328125 C-10.88453189 12.83546405 -8.76183943 10.379313 -6.4375 7.875 C-4.05245716 5.29805716 -1.95043516 2.92565274 0 0 Z " fill="#E99853" transform="translate(282,233)"/>
<path d="M0 0 C-2.77774423 2.77774423 -5.93858886 3.57412585 -9.58984375 4.90234375 C-11.97635248 5.98923022 -13.30212021 7.03314916 -15 9 C-14.34 9 -13.68 9 -13 9 C-13 9.66 -13 10.32 -13 11 C-18 9.33333333 -23 7.66666667 -28 6 C-28 5.67 -28 5.34 -28 5 C-26.81857422 4.85304688 -26.81857422 4.85304688 -25.61328125 4.703125 C-18.30314806 3.69960376 -11.56462201 2.09647887 -4.58203125 -0.29296875 C-2 -1 -2 -1 0 0 Z " fill="#EED6AB" transform="translate(241,268)"/>
<path d="M0 0 C0.99 0.33 1.98 0.66 3 1 C0.19762036 10.97884391 -7.46404909 19.11829564 -15 26 C-15.33 24.68 -15.66 23.36 -16 22 C-15.01 21.67 -14.02 21.34 -13 21 C-12.67 20.01 -12.34 19.02 -12 18 C-11 17 -10 16 -9 15 C-9 14.34 -9 13.68 -9 13 C-8.01 13 -7.02 13 -6 13 C-5.896875 12.4225 -5.79375 11.845 -5.6875 11.25 C-4.90207202 8.67950842 -3.69495803 7.06342716 -2 5 C-1.34 5.33 -0.68 5.66 0 6 C0 4.02 0 2.04 0 0 Z " fill="#D78F5A" transform="translate(302,242)"/>
<path d="M0 0 C2.49661032 3.74491549 2.95307965 7.33010724 3.625 11.6875 C3.75688721 12.52514893 3.88877441 13.36279785 4.0246582 14.22583008 C5.18785889 22.19228859 5.29935869 29.9616649 5 38 C4.01 38.495 4.01 38.495 3 39 C2.92652344 37.31197266 2.92652344 37.31197266 2.8515625 35.58984375 C2.43076994 26.71529941 1.74032926 18.02406086 0.40234375 9.234375 C0.01455899 6.11703735 -0.07130327 3.13734405 0 0 Z " fill="#A7C1C1" transform="translate(318,154)"/>
<path d="M0 0 C0.66 0 1.32 0 2 0 C2.66 0.99 3.32 1.98 4 3 C5.32 2.34 6.64 1.68 8 1 C0.4987752 17.43885434 0.4987752 17.43885434 -6 22 C-6.66 22 -7.32 22 -8 22 C-7.52653165 17.73878485 -5.03860562 15.81626862 -2 13 C0.27216848 11.16262173 0.27216848 11.16262173 0.1953125 8.3984375 C0.17210937 7.40070313 0.14890625 6.40296875 0.125 5.375 C0.10695312 4.37210938 0.08890625 3.36921875 0.0703125 2.3359375 C0.04710937 1.56507813 0.02390625 0.79421875 0 0 Z " fill="#0C2237" transform="translate(177,241)"/>
<path d="M0 0 C3.3 0 6.6 0 10 0 C10 1.32 10 2.64 10 4 C7.73194205 4.69809445 5.46133393 5.38371017 3.1875 6.0625 C2.54490234 6.26166016 1.90230469 6.46082031 1.24023438 6.66601562 C-3.66015625 8.11328125 -3.66015625 8.11328125 -7 7 C-5.47005208 5.76302083 -3.94010417 4.52604167 -2.41015625 3.2890625 C-0.86733563 2.0333609 -0.86733563 2.0333609 0 0 Z " fill="#2A92AA" transform="translate(182,175)"/>
<path d="M0 0 C0.99 0.66 1.98 1.32 3 2 C2.67 2.66 2.34 3.32 2 4 C1.4225 3.690625 0.845 3.38125 0.25 3.0625 C-3.32197953 1.37573189 -5.26044856 0.88622286 -9.25 1.5 C-13.51978079 2.06930411 -16.75524013 1.63671398 -21 1 C-21.99 1 -22.98 1 -24 1 C-24 0.34 -24 -0.32 -24 -1 C-16.33846149 -3.23238302 -7.52045804 -2.53815459 0 0 Z " fill="#51356A" transform="translate(212,180)"/>
<path d="M0 0 C1.2941674 2.58833479 0.8092106 3.83958933 0.375 6.6875 C-0.4221176 14.08790043 1.29076704 20.84439759 3 28 C0.69 27.01 -1.62 26.02 -4 25 C-3.84402344 24.49210937 -3.68804687 23.98421875 -3.52734375 23.4609375 C-2.56167861 18.95450017 -2.59524044 14.32021185 -2.37890625 9.7265625 C-2.0191888 6.18872283 -1.26520469 3.30899689 0 0 Z " fill="#306377" transform="translate(166,202)"/>
<path d="M0 0 C0.66 0.66 1.32 1.32 2 2 C1.04738281 2.04898438 0.09476563 2.09796875 -0.88671875 2.1484375 C-2.14097656 2.22320312 -3.39523438 2.29796875 -4.6875 2.375 C-6.54955078 2.47941406 -6.54955078 2.47941406 -8.44921875 2.5859375 C-11.73189121 2.96873539 -14.00155086 3.70337335 -17 5 C-19.66572015 5.49313497 -22.29815717 5.72523632 -25 6 C-23.1875 4 -23.1875 4 -21 2 C-20.01 2 -19.02 2 -18 2 C-18 1.34 -18 0.68 -18 0 C-15.93831015 -0.19620767 -13.87559002 -0.38160753 -11.8125 -0.5625 C-10.66394531 -0.66691406 -9.51539063 -0.77132812 -8.33203125 -0.87890625 C-5.27999755 -0.98982424 -2.91664239 -0.8651497 0 0 Z " fill="#D7793A" transform="translate(200,156)"/>
<path d="M0 0 C0.99 0.33 1.98 0.66 3 1 C2.45730469 1.72445312 1.91460937 2.44890625 1.35546875 3.1953125 C0.28232422 4.64550781 0.28232422 4.64550781 -0.8125 6.125 C-1.87404297 7.55199219 -1.87404297 7.55199219 -2.95703125 9.0078125 C-5.84094038 13.23166411 -8.06530929 17.36830297 -9.1875 22.375 C-9.5896875 24.169375 -9.5896875 24.169375 -10 26 C-10.66 25.67 -11.32 25.34 -12 25 C-11.75656631 17.45355557 -9.78968237 11.93382195 -5 6 C-3.68579 5.29638484 -2.3549277 4.62160531 -1 4 C-0.19471111 1.94999129 -0.19471111 1.94999129 0 0 Z " fill="#2C7A8E" transform="translate(174,185)"/>
<path d="M0 0 C0.66 0.33 1.32 0.66 2 1 C2.86091417 10.68050151 2.86091417 10.68050151 -0.3125 14.5 C-3 17 -3 17 -6 19 C-6.72965366 21.56282742 -6.72965366 21.56282742 -7 24 C-8.98 23.01 -10.96 22.02 -13 21 C-9.60377358 17.10062893 -9.60377358 17.10062893 -6.375 16.5625 C-5.59125 16.376875 -4.8075 16.19125 -4 16 C-2.75285597 13.59047977 -2.75285597 13.59047977 -2 11 C-1.34 10.34 -0.68 9.68 0 9 C0.24253813 6.78927023 0.24253813 6.78927023 0.125 4.375 C0.10695312 3.55773437 0.08890625 2.74046875 0.0703125 1.8984375 C0.04710937 1.27195313 0.02390625 0.64546875 0 0 Z " fill="#166976" transform="translate(176,241)"/>
<path d="M0 0 C5.25986842 4.85526316 5.25986842 4.85526316 6 9 C6.66 9.33 7.32 9.66 8 10 C9.33819996 17.50599374 9.97418663 24.32336646 6 31 C5.67 31 5.34 31 5 31 C4.97301811 29.37509046 4.95361243 27.75005367 4.9375 26.125 C4.92589844 25.22007812 4.91429687 24.31515625 4.90234375 23.3828125 C5 21 5 21 6 19 C5.44379001 12.32548013 4.07076973 7.29200065 0 2 C0 1.34 0 0.68 0 0 Z " fill="#4E3D6C" transform="translate(223,189)"/>
<path d="M0 0 C10.44198751 8.53544485 10.44198751 8.53544485 11.75 14.3125 C11.87375 15.6428125 11.87375 15.6428125 12 17 C10.35 17 8.7 17 7 17 C6.22157062 13.59437148 5.90021879 10.49234244 6 7 C5.401875 6.731875 4.80375 6.46375 4.1875 6.1875 C2.02775192 5.01506533 0.64209744 3.80630718 -1 2 C-0.67 1.34 -0.34 0.68 0 0 Z " fill="#485B87" transform="translate(228,171)"/>
<path d="M0 0 C3.59634744 3.49359465 6.83451967 7.11098131 10 11 C6.61867162 10.46206139 3.31949871 9.82987468 0 9 C-0.66 9 -1.32 9 -2 9 C-1.34 6.03 -0.68 3.06 0 0 Z " fill="#0B353F" transform="translate(106,160)"/>
<path d="M0 0 C3.54079281 -0.30232529 5.46215105 -0.33605136 8.51953125 1.57421875 C9.27621094 2.27160156 10.03289062 2.96898438 10.8125 3.6875 C11.58207031 4.37199219 12.35164062 5.05648437 13.14453125 5.76171875 C15.21839183 8.26344951 15.84457948 9.76832496 16 13 C15.34 13.66 14.68 14.32 14 15 C13.67 14.01 13.34 13.02 13 12 C12.34 12 11.68 12 11 12 C10.67 10.35 10.34 8.7 10 7 C9.34 7 8.68 7 8 7 C6.31183067 5.35511706 4.64646685 3.68662458 3 2 C2.01 1.34 1.02 0.68 0 0 Z " fill="#B6743F" transform="translate(184,115)"/>
<path d="M0 0 C-0.99 0.33 -1.98 0.66 -3 1 C-3 1.66 -3 2.32 -3 3 C-5.3359375 4.7265625 -5.3359375 4.7265625 -8.375 6.625 C-9.37273437 7.25664062 -10.37046875 7.88828125 -11.3984375 8.5390625 C-14 10 -14 10 -16 10 C-16.33 9.01 -16.66 8.02 -17 7 C-15.68 7 -14.36 7 -13 7 C-13 6.34 -13 5.68 -13 5 C-12.01 5 -11.02 5 -10 5 C-10 4.34 -10 3.68 -10 3 C-10.66 2.67 -11.32 2.34 -12 2 C-2.48648649 -1.24324324 -2.48648649 -1.24324324 0 0 Z " fill="#DEB16C" transform="translate(279,275)"/>
<path d="M0 0 C0.66 0 1.32 0 2 0 C1.67 1.32 1.34 2.64 1 4 C1.66 4 2.32 4 3 4 C3.33 4.66 3.66 5.32 4 6 C4.99 6.33 5.98 6.66 7 7 C7.33 8.98 7.66 10.96 8 13 C2.96318503 9.92877136 -0.94510767 6.27083334 -5 2 C-4.01 1.67 -3.02 1.34 -2 1 C-1.34 1.33 -0.68 1.66 0 2 C0 1.34 0 0.68 0 0 Z " fill="#EFE6DF" transform="translate(191,110)"/>
<path d="M0 0 C0.66 0.33 1.32 0.66 2 1 C0.68592291 5.24547982 -1.01604068 9.03208135 -3 13 C-3.69971973 14.98867713 -4.37664397 16.98608051 -5 19 C-5.99 18.34 -6.98 17.68 -8 17 C-6.87548273 14.0280615 -5.77706209 11.66559313 -4 9 C-3.67 7.824375 -3.34 6.64875 -3 5.4375 C-2 2 -2 2 0 0 Z " fill="#B46C38" transform="translate(154,182)"/>
<path d="M0 0 C5.4877817 3.87372826 10.72671179 9.20912953 12 16 C10.68 16 9.36 16 8 16 C6.66141476 13.71125827 5.32898986 11.41930344 4 9.125 C3.6184375 8.47402344 3.236875 7.82304687 2.84375 7.15234375 C0 2.2265625 0 2.2265625 0 0 Z " fill="#E88651" transform="translate(279,210)"/>
<path d="M0 0 C0.99 0.33 1.98 0.66 3 1 C3 1.99 3 2.98 3 4 C4.98 4 6.96 4 9 4 C10.125 5.75 10.125 5.75 11 8 C10.125 10.25 10.125 10.25 9 12 C8.4225 11.175 7.845 10.35 7.25 9.5 C6.5075 8.675 5.765 7.85 5 7 C3.68 7 2.36 7 1 7 C0.67 4.69 0.34 2.38 0 0 Z " fill="#F2E8DE" transform="translate(275,204)"/>
<path d="M0 0 C3.74252192 0.57317903 5.58273055 2.12224565 8.25 4.75 C8.95640625 5.42546875 9.6628125 6.1009375 10.390625 6.796875 C12.30898483 9.42297924 12.33352331 10.8204111 12 14 C9 13 9 13 7 10 C6.34 9.67 5.68 9.34 5 9 C4.690625 8.195625 4.38125 7.39125 4.0625 6.5625 C3.15452711 3.70136041 3.15452711 3.70136041 0 2 C0 1.34 0 0.68 0 0 Z " fill="#B66A34" transform="translate(219,146)"/>
<path d="M0 0 C4.97968095 0.15089942 7.32187142 2.88119311 10.64453125 6.2109375 C12 8 12 8 12 11 C10.35 11.33 8.7 11.66 7 12 C7 10.35 7 8.7 7 7 C6.030625 6.5875 5.06125 6.175 4.0625 5.75 C1 4 1 4 0.125 1.8125 C0.08375 1.214375 0.0425 0.61625 0 0 Z " fill="#63C8C8" transform="translate(279,99)"/>
<path d="M0 0 C3.3 1.65 6.6 3.3 10 5 C8.68 7.31 7.36 9.62 6 12 C5.67 12 5.34 12 5 12 C5 10.02 5 8.04 5 6 C3.35 5.67 1.7 5.34 0 5 C0 3.35 0 1.7 0 0 Z " fill="#0F1F30" transform="translate(187,222)"/>
<path d="M0 0 C2.0625 2.0625 2.0625 2.0625 4 5 C3.78947368 11.21052632 3.78947368 11.21052632 1 14 C-0.57739052 11.49473271 -1.07065754 10.41385129 -0.5625 7.4375 C-0.376875 6.633125 -0.19125 5.82875 0 5 C-0.33 4.01 -0.66 3.02 -1 2 C-0.67 1.34 -0.34 0.68 0 0 Z " fill="#EBD9C8" transform="translate(282,217)"/>
<path d="M0 0 C4.6889493 0.55619669 8.19924267 1.88182673 12.375 4.0625 C13.43460937 4.61035156 14.49421875 5.15820312 15.5859375 5.72265625 C16.38257813 6.14417969 17.17921875 6.56570312 18 7 C14.84508031 8.0516399 13.96644412 7.98032423 10.875 7.1875 C10.17117188 7.01605469 9.46734375 6.84460938 8.7421875 6.66796875 C7 6 7 6 6 4 C4.02477154 2.95191959 2.02518491 1.9479589 0 1 C0 0.67 0 0.34 0 0 Z " fill="#87CDCA" transform="translate(253,84)"/>
<path d="M0 0 C1.6045556 0.14148989 3.20863767 0.28835686 4.8125 0.4375 C5.70582031 0.51871094 6.59914062 0.59992188 7.51953125 0.68359375 C10 1 10 1 13 2 C13 2.66 13 3.32 13 4 C14.65 4.33 16.3 4.66 18 5 C14.17563368 6.37677187 10.93118669 5.72799754 7 5 C6.34 4.67 5.68 4.34 5 4 C5 3.34 5 2.68 5 2 C3.35 2 1.7 2 0 2 C0 1.34 0 0.68 0 0 Z " fill="#9BD1CD" transform="translate(233,78)"/>
<path d="M0 0 C0 0.33 0 0.66 0 1 C-1.21816406 1.19335938 -2.43632812 1.38671875 -3.69140625 1.5859375 C-5.31513979 1.8487383 -6.93883574 2.1117715 -8.5625 2.375 C-9.76229492 2.56449219 -9.76229492 2.56449219 -10.98632812 2.7578125 C-15.78348903 3.54102244 -20.3548524 4.56592759 -25 6 C-25 5.34 -25 4.68 -25 4 C-17.99568789 -0.66954141 -8.1889313 -0.32610788 0 0 Z " fill="#EDCD8F" transform="translate(149,124)"/>
<path d="M0 0 C4.75 -0.125 4.75 -0.125 7 1 C8.66619446 1.0396713 10.33391013 1.04384447 12 1 C12 1.66 12 2.32 12 3 C12.99 3.33 13.98 3.66 15 4 C15.6875 6.0625 15.6875 6.0625 16 8 C15.46890625 7.72414062 14.9378125 7.44828125 14.390625 7.1640625 C11.55416613 5.78291096 8.66580343 4.57935359 5.75 3.375 C4.67234375 2.92898437 3.5946875 2.48296875 2.484375 2.0234375 C1.66453125 1.68570313 0.8446875 1.34796875 0 1 C0 0.67 0 0.34 0 0 Z " fill="#B16F4C" transform="translate(211,161)"/>
<path d="M0 0 C2.91796875 -0.390625 2.91796875 -0.390625 6.1875 -0.25 C7.27417969 -0.21390625 8.36085937 -0.1778125 9.48046875 -0.140625 C10.31191406 -0.09421875 11.14335937 -0.0478125 12 0 C11.67 0.99 11.34 1.98 11 3 C6.38 3.33 1.76 3.66 -3 4 C-2.01 2.68 -1.02 1.36 0 0 Z " fill="#23849E" transform="translate(190,200)"/>
<path d="M0 0 C1.423125 0.495 1.423125 0.495 2.875 1 C5.77062452 2.10159191 5.77062452 2.10159191 8 2 C6.55746343 5.36591866 4.66735273 7.51047079 2 10 C1.34 6.7 0.68 3.4 0 0 Z " fill="#A85941" transform="translate(243,191)"/>
<path d="M0 0 C0.66 0.33 1.32 0.66 2 1 C2.32712342 7.13053511 2.39366878 11.62669111 -1 17 C-1.66 16.34 -2.32 15.68 -3 15 C-2.690625 14.01 -2.38125 13.02 -2.0625 12 C-0.91566793 8.02268878 -0.43287644 4.11232621 0 0 Z " fill="#D78B42" transform="translate(145,179)"/>
<path d="M0 0 C2.97 0.495 2.97 0.495 6 1 C6 1.66 6 2.32 6 3 C6.99 3.33 7.98 3.66 9 4 C9 6.31 9 8.62 9 11 C8.01 11.495 8.01 11.495 7 12 C6.5875 10.948125 6.175 9.89625 5.75 8.8125 C4.30588622 5.41295943 2.44808942 2.78575693 0 0 Z " fill="#ECDED8" transform="translate(251,174)"/>
<path d="M0 0 C0.99 0.33 1.98 0.66 3 1 C-1.33333333 5.33333333 -5.66666667 9.66666667 -10 14 C-10 12.68 -10 11.36 -10 10 C-9.01 10 -8.02 10 -7 10 C-6.67 8.68 -6.34 7.36 -6 6 C-5.34 6 -4.68 6 -4 6 C-4 5.34 -4 4.68 -4 4 C-3.34 4 -2.68 4 -2 4 C-2 3.01 -2 2.02 -2 1 C-1.34 0.67 -0.68 0.34 0 0 Z " fill="#A26D39" transform="translate(166,169)"/>
<path d="M0 0 C1.17539996 0.92652701 2.34010577 1.86663387 3.5 2.8125 C4.1496875 3.33457031 4.799375 3.85664063 5.46875 4.39453125 C7 6 7 6 7 9 C4.0625 8.625 4.0625 8.625 1 8 C-0.35439668 5.29120665 -0.06501451 2.99066732 0 0 Z " fill="#B06345" transform="translate(242,166)"/>
<path d="M0 0 C0.33 0 0.66 0 1 0 C1.19617816 2.54126172 1.38217248 5.08260459 1.5625 7.625 C1.61857422 8.33785156 1.67464844 9.05070313 1.73242188 9.78515625 C2.02495798 14.03668104 1.89547939 17.79456347 1 22 C0.67 22 0.34 22 0 22 C-1.64364621 14.78621941 -1.56366008 7.23192788 0 0 Z " fill="#646B6B" transform="translate(100,184)"/>
<path d="M0 0 C4.00364637 1.2984799 5.59522794 2.61145755 8 6 C8.99 6.33 9.98 6.66 11 7 C10.67 8.32 10.34 9.64 10 11 C8.8944811 10.06409496 7.79064547 9.12620142 6.6875 8.1875 C6.07261719 7.66542969 5.45773438 7.14335937 4.82421875 6.60546875 C1.48047722 3.6626898 1.48047722 3.6626898 0 2 C0 1.34 0 0.68 0 0 Z " fill="#F6F1EE" transform="translate(241,163)"/>
<path d="M0 0 C0.66 0.33 1.32 0.66 2 1 C2.33 1.99 2.66 2.98 3 4 C4.98 3.34 6.96 2.68 9 2 C9 2.66 9 3.32 9 4 C8.34 4 7.68 4 7 4 C7 4.66 7 5.32 7 6 C2.56923077 8.09230769 2.56923077 8.09230769 -0.3125 7.625 C-0.869375 7.41875 -1.42625 7.2125 -2 7 C-1.34 7 -0.68 7 0 7 C0 4.69 0 2.38 0 0 Z " fill="#D6C7B5" transform="translate(238,288)"/>
<path d="M0 0 C1.0326802 2.78823655 1.04509293 3.8677274 0.0625 6.75 C-0.288125 7.4925 -0.63875 8.235 -1 9 C-1.99 9 -2.98 9 -4 9 C-4.33 9.66 -4.66 10.32 -5 11 C-5.33 10.01 -5.66 9.02 -6 8 C-4.41866551 4.83733102 -2.61885488 2.36944013 0 0 Z " fill="#EEA657" transform="translate(274,243)"/>
<path d="M0 0 C1.485 0.99 1.485 0.99 3 2 C2.88617347 3.95901454 2.75858875 5.9172338 2.625 7.875 C2.55539063 8.96554688 2.48578125 10.05609375 2.4140625 11.1796875 C2 14 2 14 0 16 C0 10.72 0 5.44 0 0 Z " fill="#06171D" transform="translate(146,199)"/>
<path d="M0 0 C0.33 0.99 0.66 1.98 1 3 C-2.465 4.485 -2.465 4.485 -6 6 C-6.66 5.34 -7.32 4.68 -8 4 C-8.99 3.67 -9.98 3.34 -11 3 C-7.14243493 0.84694043 -4.44870215 -0.39253254 0 0 Z " fill="#E8974B" transform="translate(175,117)"/>
<path d="M0 0 C0.66 0.33 1.32 0.66 2 1 C0.75645114 2.29787866 -0.4951264 3.58806759 -1.75 4.875 C-2.44609375 5.59429687 -3.1421875 6.31359375 -3.859375 7.0546875 C-5.85122217 8.86479679 -7.5427658 9.94848086 -10 11 C-9.67 9.35 -9.34 7.7 -9 6 C-8.01 6 -7.02 6 -6 6 C-4.98133771 4.34467377 -3.98189187 2.67739862 -3 1 C-2.01 0.67 -1.02 0.34 0 0 Z " fill="#F8E2D1" transform="translate(271,244)"/>
<path d="M0 0 C0.99 0.33 1.98 0.66 3 1 C-0.16548033 4.88901869 -3.40365256 8.50640535 -7 12 C-7.99 11.67 -8.98 11.34 -10 11 C-9.44570312 10.45730469 -8.89140625 9.91460937 -8.3203125 9.35546875 C-7.23363281 8.28232422 -7.23363281 8.28232422 -6.125 7.1875 C-5.40570313 6.47980469 -4.68640625 5.77210938 -3.9453125 5.04296875 C-1.84641063 2.95600806 -1.84641063 2.95600806 0 0 Z " fill="#E3DEDE" transform="translate(242,204)"/>
<path d="M0 0 C0.99 0.33 1.98 0.66 3 1 C2.43040847 4.62613199 1.07625466 6.25517741 -1.5625 8.75 C-2.52349609 9.67039063 -2.52349609 9.67039063 -3.50390625 10.609375 C-3.99761719 11.06828125 -4.49132812 11.5271875 -5 12 C-5.33 11.01 -5.66 10.02 -6 9 C-4.78515625 7.24609375 -4.78515625 7.24609375 -3.0625 5.4375 C-0.59403722 3.11145169 -0.59403722 3.11145169 0 0 Z " fill="#2F354E" transform="translate(236,205)"/>
<path d="M0 0 C0.66 0.66 1.32 1.32 2 2 C1.401875 2.7425 0.80375 3.485 0.1875 4.25 C-1.58173222 6.47417764 -3.30860915 8.71662235 -5 11 C-5.66 9.35 -6.32 7.7 -7 6 C-3.25 3 -3.25 3 -1 3 C-0.67 2.01 -0.34 1.02 0 0 Z " fill="#1E2A48" transform="translate(189,198)"/>
<path d="M0 0 C3.125 -0.1875 3.125 -0.1875 6 0 C6 0.66 6 1.32 6 2 C4.02 2.33 2.04 2.66 0 3 C-0.33 4.32 -0.66 5.64 -1 7 C-2.98 7.33 -4.96 7.66 -7 8 C-6.21625 7.236875 -5.4325 6.47375 -4.625 5.6875 C-1.92742283 3.09108195 -1.92742283 3.09108195 0 0 Z " fill="#27A5AE" transform="translate(182,175)"/>
<path d="M0 0 C4.13621084 3.3810038 7.81316569 6.66590534 11 11 C7.11717622 10.77812436 6.03669303 10.03752696 3.25 7.1875 C1.29602152 4.41936382 0.62882178 3.15094391 0 0 Z " fill="#B47950" transform="translate(199,124)"/>
<path d="M0 0 C2.4375 0.375 2.4375 0.375 5 1 C5.33 1.66 5.66 2.32 6 3 C8.52733235 3.65555119 8.52733235 3.65555119 11 4 C11 5.65 11 7.3 11 9 C10.01 9.495 10.01 9.495 9 10 C8.51789063 9.44570313 8.03578125 8.89140625 7.5390625 8.3203125 C6.90742188 7.59585937 6.27578125 6.87140625 5.625 6.125 C4.99851563 5.40570313 4.37203125 4.68640625 3.7265625 3.9453125 C2.52573166 2.5923402 1.2791655 1.2791655 0 0 Z " fill="#F7E4C2" transform="translate(228,279)"/>
<path d="M0 0 C0.66 0 1.32 0 2 0 C0.49087042 4.98012761 -2.55661849 8.24259942 -6 12 C-6.33 11.01 -6.66 10.02 -7 9 C-6.34 8.67 -5.68 8.34 -5 8 C-4.27306096 6.02111039 -3.60183749 4.02045442 -3 2 C-2.34 2 -1.68 2 -1 2 C-0.67 1.34 -0.34 0.68 0 0 Z " fill="#EFDBCB" transform="translate(280,232)"/>
<path d="M0 0 C6.75 0.75 6.75 0.75 9 3 C8.01 3.495 8.01 3.495 7 4 C6.67 4.66 6.34 5.32 6 6 C3.5625 5.25 3.5625 5.25 1 4 C0.1875 1.875 0.1875 1.875 0 0 Z " fill="#20A1A4" transform="translate(143,221)"/>
<path d="M0 0 C0.99 0.66 1.98 1.32 3 2 C1.79157144 6.43090471 0.48331435 8.98112756 -3 12 C-3 10.68 -3 9.36 -3 8 C-2.34 8 -1.68 8 -1 8 C-1.020625 7.05125 -1.04125 6.1025 -1.0625 5.125 C-1 2 -1 2 0 0 Z " fill="#A65538" transform="translate(255,180)"/>
<path d="M0 0 C3.42931954 3.7559214 4.56429083 8.23466745 6 13 C5.34 13 4.68 13 4 13 C3.71125 12.360625 3.4225 11.72125 3.125 11.0625 C2.17176549 8.84793921 2.17176549 8.84793921 0 8 C0 5.36 0 2.72 0 0 Z " fill="#8CCCCE" transform="translate(311,135)"/>
<path d="M0 0 C0.99 0.33 1.98 0.66 3 1 C3.99 1 4.98 1 6 1 C7.6875 3 7.6875 3 9 5 C6.03 5 3.06 5 0 5 C0 3.35 0 1.7 0 0 Z " fill="#C1B7AF" transform="translate(180,110)"/>
<path d="M0 0 C0.33 0 0.66 0 1 0 C0.67 2.64 0.34 5.28 0 8 C-2.97 7.505 -2.97 7.505 -6 7 C-6 6.34 -6 5.68 -6 5 C-5.34 5 -4.68 5 -4 5 C-4 4.34 -4 3.68 -4 3 C-3.01 2.67 -2.02 2.34 -1 2 C-0.67 1.34 -0.34 0.68 0 0 Z " fill="#392F4D" transform="translate(191,265)"/>
<path d="M0 0 C0.66 0 1.32 0 2 0 C2.66 0.99 3.32 1.98 4 3 C5.32 2.34 6.64 1.68 8 1 C5.525 5.455 5.525 5.455 3 10 C2.67 10 2.34 10 2 10 C1.34 6.7 0.68 3.4 0 0 Z " fill="#0A1321" transform="translate(177,241)"/>
<path d="M0 0 C0.33 0.66 0.66 1.32 1 2 C1.825 2.2475 2.65 2.495 3.5 2.75 C4.325 3.1625 5.15 3.575 6 4 C6.8125 7.125 6.8125 7.125 7 10 C6.01 10 5.02 10 4 10 C0 3.375 0 3.375 0 0 Z " fill="#112030" transform="translate(169,228)"/>
<path d="M0 0 C0.66 0 1.32 0 2 0 C2.63019694 8.19256018 2.63019694 8.19256018 0 11.5625 C-0.99 12.2740625 -0.99 12.2740625 -2 13 C-1.39174965 8.65535464 -0.73832608 4.32448133 0 0 Z " fill="#2990A8" transform="translate(209,210)"/>
<path d="M0 0 C0.66 0.33 1.32 0.66 2 1 C-0.28459758 3.28459758 -2.12537344 3.97129748 -5.125 5.125 C-6.03507813 5.47820312 -6.94515625 5.83140625 -7.8828125 6.1953125 C-8.58148438 6.46085937 -9.28015625 6.72640625 -10 7 C-10.66 6.34 -11.32 5.68 -12 5 C-10.29573455 4.26482667 -8.59095003 3.53081884 -6.8828125 2.8046875 C-5.31187085 2.1332892 -3.7486564 1.44384729 -2.1875 0.75 C-1.465625 0.5025 -0.74375 0.255 0 0 Z " fill="#F1CA8E" transform="translate(239,267)"/>
<path d="M0 0 C0.99 0.33 1.98 0.66 3 1 C2.67 1.66 2.34 2.32 2 3 C1.01 3.33 0.02 3.66 -1 4 C-2.67067133 5.99665598 -4.33752986 7.99651034 -6 10 C-6.66 10 -7.32 10 -8 10 C-6.34908222 5.70761377 -3.26245434 3.1206085 0 0 Z " fill="#F3E9E5" transform="translate(230,218)"/>
<path d="M0 0 C4.29 0.33 8.58 0.66 13 1 C13 1.33 13 1.66 13 2 C9.7 2 6.4 2 3 2 C3.33 2.99 3.66 3.98 4 5 C3.34 5.66 2.68 6.32 2 7 C0.5393715 4.35261084 0 3.10551666 0 0 Z " fill="#338D93" transform="translate(125,218)"/>
<path d="M0 0 C1.32 1.32 2.64 2.64 4 4 C3.34 4.66 2.68 5.32 2 6 C1.75660449 8.89883083 1.75660449 8.89883083 1.875 12.125 C1.89304687 13.22070312 1.91109375 14.31640625 1.9296875 15.4453125 C1.95289062 16.28835937 1.97609375 17.13140625 2 18 C-0.45391569 14.31912647 -0.22802759 11.55644412 -0.125 7.3125 C-0.11597656 6.61060547 -0.10695313 5.90871094 -0.09765625 5.18554688 C-0.07413704 3.45688475 -0.03826713 1.72839855 0 0 Z " fill="#BFC0BD" transform="translate(101,200)"/>
<path d="M0 0 C5.53846154 0.61538462 5.53846154 0.61538462 7.875 2.5625 C8.431875 3.2740625 8.431875 3.2740625 9 4 C8.01 5.485 8.01 5.485 7 7 C5.83040013 6.02433888 4.66438823 5.044375 3.5 4.0625 C2.8503125 3.51722656 2.200625 2.97195312 1.53125 2.41015625 C1.0259375 1.94480469 0.520625 1.47945312 0 1 C0 0.67 0 0.34 0 0 Z " fill="#E1B277" transform="translate(121,175)"/>
<path d="M0 0 C-0.33 0.66 -0.66 1.32 -1 2 C-3.31939207 2.7136591 -5.65523449 3.3747292 -8 4 C-9.67632417 4.64199649 -11.34750513 5.29894157 -13 6 C-10.56601607 1.25373134 -10.56601607 1.25373134 -8.1875 0.1875 C-5.448268 -0.04729131 -2.74762532 -0.06244603 0 0 Z " fill="#392B48" transform="translate(207,226)"/>
<path d="M0 0 C0.66 1.32 1.32 2.64 2 4 C-1.63 3.34 -5.26 2.68 -9 2 C-9 1.34 -9 0.68 -9 0 C-5.69978999 -0.8250525 -3.17546695 -1.42348518 0 0 Z " fill="#062C34" transform="translate(142,217)"/>
<path d="M0 0 C2.475 0.99 2.475 0.99 5 2 C6.25 9.625 6.25 9.625 4 13 C3.71125 11.783125 3.4225 10.56625 3.125 9.3125 C2.32164208 6.08185352 1.33734591 3.05679065 0 0 Z " fill="#522C62" transform="translate(208,201)"/>
<path d="M0 0 C1.06671952 3.20015856 0.94845472 4.88544294 0.5625 8.1875 C0.46066406 9.08855469 0.35882813 9.98960937 0.25390625 10.91796875 C0.17011719 11.60503906 0.08632812 12.29210937 0 13 C-0.99 13 -1.98 13 -3 13 C-2.45144652 8.428721 -1.58255197 4.32564205 0 0 Z " fill="#21A7AE" transform="translate(155,189)"/>
<path d="M0 0 C-1.38188453 3.21043882 -2.92421903 5.04936365 -5.625 7.25 C-6.57246094 8.03117187 -6.57246094 8.03117187 -7.5390625 8.828125 C-8.02117187 9.21484375 -8.50328125 9.6015625 -9 10 C-9 8.68 -9 7.36 -9 6 C-8.01 5.67 -7.02 5.34 -6 5 C-5.67 4.01 -5.34 3.02 -5 2 C-2 0 -2 0 0 0 Z " fill="#D2A178" transform="translate(295,258)"/>
<path d="M0 0 C1.32 0 2.64 0 4 0 C4.33 0.66 4.66 1.32 5 2 C5.66 1.34 6.32 0.68 7 0 C7 0.99 7 1.98 7 3 C8.65 3 10.3 3 12 3 C11.67 3.66 11.34 4.32 11 5 C7.7 4.34 4.4 3.68 1 3 C0.67 2.01 0.34 1.02 0 0 Z " fill="#29BDC0" transform="translate(188,221)"/>
<path d="M0 0 C0.33 0 0.66 0 1 0 C1.19818283 6.70518586 1.30844801 12.65176798 -1 19 C-1.66 19 -2.32 19 -3 19 C-2.5359375 17.081875 -2.5359375 17.081875 -2.0625 15.125 C-0.93885167 10.11241278 -0.40577419 5.11489044 0 0 Z " fill="#DE994E" transform="translate(144,175)"/>
<path d="M0 0 C0.66 0.33 1.32 0.66 2 1 C1.67 2.32 1.34 3.64 1 5 C-0.65 5.33 -2.3 5.66 -4 6 C-4.33 7.32 -4.66 8.64 -5 10 C-5.66 10 -6.32 10 -7 10 C-6.42655063 7.13275314 -6.1385485 6.1385485 -4 4 C-3.01 4 -2.02 4 -1 4 C-0.67 2.68 -0.34 1.36 0 0 Z " fill="#E07E3A" transform="translate(168,161)"/>
<path d="M0 0 C0.763125 0.103125 1.52625 0.20625 2.3125 0.3125 C0.9375 2.3125 0.9375 2.3125 -0.6875 4.3125 C-1.3475 4.3125 -2.0075 4.3125 -2.6875 4.3125 C-3.3475 5.6325 -4.0075 6.9525 -4.6875 8.3125 C-5.6875 5.3125 -5.6875 5.3125 -4.5625 2.625 C-2.6875 0.3125 -2.6875 0.3125 0 0 Z " fill="#E6B774" transform="translate(151.6875,123.6875)"/>
<path d="M0 0 C0.33 0 0.66 0 1 0 C1.99 4.95 2.98 9.9 4 15 C1.525 14.01 1.525 14.01 -1 13 C-0.34 12.67 0.32 12.34 1 12 C0.67 11.01 0.34 10.02 0 9 C-0.06740865 7.43881572 -0.08514456 5.8749748 -0.0625 4.3125 C-0.05347656 3.50425781 -0.04445312 2.69601563 -0.03515625 1.86328125 C-0.02355469 1.24839844 -0.01195312 0.63351563 0 0 Z " fill="#245668" transform="translate(165,215)"/>
<path d="M0 0 C0.33 0.66 0.66 1.32 1 2 C0.67 2.66 0.34 3.32 0 4 C0.66 4.33 1.32 4.66 2 5 C1.360625 5.433125 0.72125 5.86625 0.0625 6.3125 C-2.26746003 7.91239177 -2.26746003 7.91239177 -3 11 C-3.66 11 -4.32 11 -5 11 C-3.92289822 6.69159287 -2.96052484 3.36423277 0 0 Z " fill="#42A19D" transform="translate(157,182)"/>
<path d="M0 0 C-3.18382329 2.81645906 -5.75534029 3.72317437 -10 4 C-10.66 3.34 -11.32 2.68 -12 2 C-8.34215498 -0.11029521 -3.98761141 -1.99380571 0 0 Z " fill="#34B5AF" transform="translate(186,164)"/>
<path d="M0 0 C2.375 -0.125 2.375 -0.125 5 0 C7 2 7 2 7.125 4.625 C7.08375 5.40875 7.0425 6.1925 7 7 C5.83040013 6.02433888 4.66438823 5.044375 3.5 4.0625 C2.8503125 3.51722656 2.200625 2.97195312 1.53125 2.41015625 C1.0259375 1.94480469 0.520625 1.47945312 0 1 C0 0.67 0 0.34 0 0 Z " fill="#BC6E4F" transform="translate(227,169)"/>
<path d="M0 0 C3.59634744 3.49359465 6.83451967 7.11098131 10 11 C7.75 10.9375 7.75 10.9375 5 10 C2.62393486 6.95957454 1.21346242 3.64038726 0 0 Z " fill="#1E2421" transform="translate(106,160)"/>
<path d="M0 0 C-1.59915881 0.69906942 -3.20455045 1.38389468 -4.8125 2.0625 C-5.70582031 2.44535156 -6.59914062 2.82820313 -7.51953125 3.22265625 C-10 4 -10 4 -13 3 C-12.34 3 -11.68 3 -11 3 C-10.67 2.01 -10.34 1.02 -10 0 C-3.375 -1.125 -3.375 -1.125 0 0 Z " fill="#BEA985" transform="translate(258,289)"/>
<path d="M0 0 C0.99 0.33 1.98 0.66 3 1 C1.79157144 5.43090471 0.48331435 7.98112756 -3 11 C-3 9.02 -3 7.04 -3 5 C-2.01 5.33 -1.02 5.66 0 6 C0 4.02 0 2.04 0 0 Z " fill="#CF9577" transform="translate(302,242)"/>
<path d="M0 0 C3.63094642 2.64960955 5.89851796 5.01824456 8 9 C7.01 9.33 6.02 9.66 5 10 C4.16121545 8.71186658 3.32913217 7.41936744 2.5 6.125 C2.0359375 5.40570313 1.571875 4.68640625 1.09375 3.9453125 C0 2 0 2 0 0 Z " fill="#D59B60" transform="translate(279,210)"/>
<path d="M0 0 C1.65 0 3.3 0 5 0 C5.33 1.32 5.66 2.64 6 4 C3.69 4 1.38 4 -1 4 C-0.67 2.68 -0.34 1.36 0 0 Z " fill="#05313C" transform="translate(125,214)"/>
<path d="M0 0 C1.98 0.495 1.98 0.495 4 1 C3.67 3.97 3.34 6.94 3 10 C1.00902154 7.01353231 0.05875074 4.40312738 -1 1 C-0.67 0.67 -0.34 0.34 0 0 Z " fill="#B9674D" transform="translate(240,181)"/>
<path d="M0 0 C0.66 0 1.32 0 2 0 C1.67 1.32 1.34 2.64 1 4 C1.66 4 2.32 4 3 4 C3 4.66 3 5.32 3 6 C-2.75 4.375 -2.75 4.375 -5 1 C-2.525 1.495 -2.525 1.495 0 2 C0 1.34 0 0.68 0 0 Z " fill="#F0EFEE" transform="translate(191,110)"/>
<path d="M0 0 C4.05606165 0.46800711 7.46588679 0.87953208 11 3 C8.875 4.1875 8.875 4.1875 6 5 C2.6875 3.625 2.6875 3.625 0 2 C0 1.34 0 0.68 0 0 Z " fill="#3E3563" transform="translate(175,266)"/>
<path d="M0 0 C0.99 0 1.98 0 3 0 C2.43628586 3.26954202 1.50037734 4.82575883 -1 7 C-1.99 6.67 -2.98 6.34 -4 6 C-3.01 5.67 -2.02 5.34 -1 5 C-0.67 3.35 -0.34 1.7 0 0 Z " fill="#4E304D" transform="translate(225,218)"/>
<path d="M0 0 C-5.36439644 2.68219822 -9.01006953 3.3152595 -15 3 C-10.42919136 0.44034716 -5.14097791 -2.05639116 0 0 Z " fill="#C5C3BE" transform="translate(185,80)"/>
<path d="M0 0 C3.0831351 1.19899698 6.06279492 2.47700477 9 4 C9 4.66 9 5.32 9 6 C9.66 6.33 10.32 6.66 11 7 C7.41584854 7 6.58796261 6.21108216 3.8125 4.0625 C3.09707031 3.51722656 2.38164062 2.97195313 1.64453125 2.41015625 C1.10183594 1.94480469 0.55914062 1.47945312 0 1 C0 0.67 0 0.34 0 0 Z " fill="#308789" transform="translate(153,254)"/>
<path d="M0 0 C2.0625 0.4375 2.0625 0.4375 4 1 C3.67 2.32 3.34 3.64 3 5 C2.01 5 1.02 5 0 5 C-0.5625 3.0625 -0.5625 3.0625 -1 1 C-0.67 0.67 -0.34 0.34 0 0 Z " fill="#F08D4F" transform="translate(282,233)"/>
<path d="M0 0 C0.99 0.33 1.98 0.66 3 1 C3.33 3.31 3.66 5.62 4 8 C3.01 7.67 2.02 7.34 1 7 C0.67 4.69 0.34 2.38 0 0 Z " fill="#E7D9C4" transform="translate(275,204)"/>
<path d="M0 0 C2.64 0.33 5.28 0.66 8 1 C7.67 2.65 7.34 4.3 7 6 C3.73539027 4.19587357 2.11070205 3.16605307 0 0 Z " fill="#D2A165" transform="translate(134,187)"/>
<path d="M0 0 C1.134375 0.020625 2.26875 0.04125 3.4375 0.0625 C2.4375 2.0625 2.4375 2.0625 0.5625 2.8125 C-1.5625 3.0625 -1.5625 3.0625 -4.5625 1.0625 C-3.5625 0.0625 -3.5625 0.0625 0 0 Z M-4.5625 3.0625 C-3.5725 3.0625 -2.5825 3.0625 -1.5625 3.0625 C-1.8925 4.0525 -2.2225 5.0425 -2.5625 6.0625 C-3.2225 5.7325 -3.8825 5.4025 -4.5625 5.0625 C-4.5625 4.4025 -4.5625 3.7425 -4.5625 3.0625 Z " fill="#24BFC1" transform="translate(177.5625,166.9375)"/>
<path d="M0 0 C0.66 0.33 1.32 0.66 2 1 C-1.96 4.465 -1.96 4.465 -6 8 C-6 5 -6 5 -4.6875 3.61328125 C-3.125 2.40885417 -1.5625 1.20442708 0 0 Z " fill="#B6B3AE" transform="translate(127,106)"/>
<path d="M0 0 C2.0625 0.4375 2.0625 0.4375 4 1 C2.69593116 3.01920337 1.36176581 5.01924973 0 7 C-0.33 7 -0.66 7 -1 7 C-1.04254356 5.00045254 -1.04080783 2.99958364 -1 1 C-0.67 0.67 -0.34 0.34 0 0 Z " fill="#121425" transform="translate(193,227)"/>
<path d="M0 0 C0.33 0.66 0.66 1.32 1 2 C-2.25 8.5 -2.25 8.5 -6 11 C-5.690625 10.236875 -5.38125 9.47375 -5.0625 8.6875 C-4.32106407 6.81210323 -3.63771783 4.91315348 -3 3 C-2.34 3 -1.68 3 -1 3 C-0.67 2.01 -0.34 1.02 0 0 Z " fill="#522C56" transform="translate(214,215)"/>
<path d="M0 0 C1.32 0.33 2.64 0.66 4 1 C-0.75 5 -0.75 5 -3 5 C-3.33 4.01 -3.66 3.02 -4 2 C-2.68 2 -1.36 2 0 2 C0 1.34 0 0.68 0 0 Z " fill="#DDB987" transform="translate(266,280)"/>
<path d="M0 0 C0.66 0 1.32 0 2 0 C2.33 1.65 2.66 3.3 3 5 C1.35 5.66 -0.3 6.32 -2 7 C-1.34 4.69 -0.68 2.38 0 0 Z " fill="#C8A56F" transform="translate(260,281)"/>
<path d="M0 0 C1.65 0 3.3 0 5 0 C5 0.99 5 1.98 5 3 C3.35 3.66 1.7 4.32 0 5 C0 3.35 0 1.7 0 0 Z " fill="#F8EAD7" transform="translate(253,255)"/>
<path d="M0 0 C0.33 1.32 0.66 2.64 1 4 C-1.31 5.32 -3.62 6.64 -6 8 C-4.95125002 5.37812506 -4.35068687 4.20628639 -1.875 2.75 C-1.25625 2.5025 -0.6375 2.255 0 2 C0 1.34 0 0.68 0 0 Z " fill="#24213A" transform="translate(191,234)"/>
<path d="M0 0 C0 0.66 0 1.32 0 2 C1.32 2 2.64 2 4 2 C4.33 2.99 4.66 3.98 5 5 C-0.94 3.515 -0.94 3.515 -7 2 C-7 1.67 -7 1.34 -7 1 C-2.25 0 -2.25 0 0 0 Z " fill="#3971A2" transform="translate(210,177)"/>
<path d="M0 0 C2.31 1.98 4.62 3.96 7 6 C6.01 6.33 5.02 6.66 4 7 C2.35 5.35 0.7 3.7 -1 2 C-0.67 1.34 -0.34 0.68 0 0 Z " fill="#506A94" transform="translate(228,171)"/>
<path d="M0 0 C1.98 0.66 3.96 1.32 6 2 C5.01 3.485 5.01 3.485 4 5 C2.68 4.67 1.36 4.34 0 4 C0 2.68 0 1.36 0 0 Z " fill="#4383AA" transform="translate(216,164)"/>
<path d="M0 0 C3.96 0 7.92 0 12 0 C12.33 0.99 12.66 1.98 13 3 C11.68 3 10.36 3 9 3 C9 2.34 9 1.68 9 1 C6.03 1 3.06 1 0 1 C0 0.67 0 0.34 0 0 Z " fill="#D27532" transform="translate(202,158)"/>
<path d="M0 0 C1.32 0 2.64 0 4 0 C4.625 1.875 4.625 1.875 5 4 C4.34 4.66 3.68 5.32 3 6 C2.67 5.01 2.34 4.02 2 3 C1.34 3 0.68 3 0 3 C0 2.01 0 1.02 0 0 Z " fill="#C57534" transform="translate(195,124)"/>
<path d="M0 0 C0.99 0.33 1.98 0.66 3 1 C3 2.98 3 4.96 3 7 C2.01 6.67 1.02 6.34 0 6 C0 4.02 0 2.04 0 0 Z " fill="#ED7D4D" transform="translate(299,241)"/>
<path d="M0 0 C0.99 0 1.98 0 3 0 C2.67 2.64 2.34 5.28 2 8 C1.34 7.67 0.68 7.34 0 7 C0 4.69 0 2.38 0 0 Z " fill="#E57D32" transform="translate(148,182)"/>
<path d="M0 0 C1.485 0.99 1.485 0.99 3 2 C2.25 6.75 2.25 6.75 0 9 C0 6.03 0 3.06 0 0 Z " fill="#3D6093" transform="translate(234,178)"/>
<path d="M0 0 C0.66 0.99 1.32 1.98 2 3 C-3.75 6.875 -3.75 6.875 -6 8 C-4.55746343 4.63408134 -2.66735273 2.48952921 0 0 Z " fill="#B9A174" transform="translate(113,132)"/>
<path d="M0 0 C2.31 0 4.62 0 7 0 C6.67 0.66 6.34 1.32 6 2 C3.35139573 2.59355614 0.70802678 2.74209269 -2 3 C-1.34 2.67 -0.68 2.34 0 2 C0 1.34 0 0.68 0 0 Z " fill="#EEC88D" transform="translate(252,286)"/>
<path d="M0 0 C0.33 0 0.66 0 1 0 C2.35384615 6.4 2.35384615 6.4 0.5625 9.4375 C0.046875 9.953125 -0.46875 10.46875 -1 11 C-1.66 10.34 -2.32 9.68 -3 9 C-2.34 8.34 -1.68 7.68 -1 7 C-0.59952556 4.67724823 -0.2602896 2.34260643 0 0 Z " fill="#0D2A3F" transform="translate(178,245)"/>
<path d="M0 0 C2 3 2 3 2 6 C1.01 6.33 0.02 6.66 -1 7 C-1.625 5.1875 -1.625 5.1875 -2 3 C-1.34 2.01 -0.68 1.02 0 0 Z " fill="#1F6579" transform="translate(164,221)"/>
<path d="M0 0 C1.98 1.65 3.96 3.3 6 5 C5.01 6.485 5.01 6.485 4 8 C4 7.01 4 6.02 4 5 C2.68 4.67 1.36 4.34 0 4 C0 2.68 0 1.36 0 0 Z " fill="#AB624E" transform="translate(250,174)"/>
<path d="M0 0 C0.66 0.66 1.32 1.32 2 2 C1.01 3.485 1.01 3.485 0 5 C-1.32 4.34 -2.64 3.68 -4 3 C-3 1 -3 1 0 0 Z " fill="#BF6A49" transform="translate(239,176)"/>
<path d="M0 0 C2.97 0.495 2.97 0.495 6 1 C6.33 2.32 6.66 3.64 7 5 C4.11424181 4.60196439 3.17810487 4.20990931 1.25 1.9375 C0.8375 1.298125 0.425 0.65875 0 0 Z " fill="#F3EEED" transform="translate(251,174)"/>
<path d="M0 0 C2.475 0.495 2.475 0.495 5 1 C5 2.32 5 3.64 5 5 C3.68 4.67 2.36 4.34 1 4 C0.67 2.68 0.34 1.36 0 0 Z " fill="#063139" transform="translate(111,170)"/>
<path d="M0 0 C2.02054804 1.64169528 4.02043058 3.30911778 6 5 C6 5.33 6 5.66 6 6 C4.35 6 2.7 6 1 6 C0.67 4.02 0.34 2.04 0 0 Z " fill="#47C6CC" transform="translate(292,111)"/>
</svg>
